<svg width="1320" height="900" viewBox="0 0 1320 900" fill="none" xmlns="http://www.w3.org/2000/svg">
<rect width="1320" height="900" fill="#FAF9F8"></rect>
<g filter="url(#filter0_d_49_395)">
<rect x="823" y="396" width="438" height="435" rx="24" fill="#343433"></rect>
</g>
<path d="M862.988 446.694V461.328H867.637V460H864.624V448.022H867.612V446.694H862.988ZM889.236 484.328V483H888.364C887.144 483 886.903 482.709 886.903 481.29V479.049C886.903 477.895 886.048 477.131 884.421 477.082V476.94C886.048 476.891 886.903 476.127 886.903 474.973V472.732C886.903 471.312 887.144 471.022 888.364 471.022H889.236V469.694H888.049C885.915 469.694 885.235 470.375 885.235 472.491V474.351C885.235 475.637 884.537 476.31 882.628 476.152V477.87C884.537 477.712 885.235 478.385 885.235 479.68V481.531C885.235 483.647 885.915 484.328 888.049 484.328H889.236ZM989.32 499.725C990.2 499.725 990.914 498.994 990.914 498.106C990.914 497.209 990.2 496.479 989.32 496.479C988.448 496.479 987.726 497.209 987.726 498.106C987.726 498.994 988.448 499.725 989.32 499.725ZM989.32 506.083C990.2 506.083 990.914 505.344 990.914 504.456C990.914 503.56 990.2 502.829 989.32 502.829C988.448 502.829 987.726 503.56 987.726 504.456C987.726 505.344 988.448 506.083 989.32 506.083ZM1091.99 508.797L1093.54 503.302H1091.45L1090.47 508.797H1091.99ZM958.303 522.725C959.183 522.725 959.897 521.994 959.897 521.106C959.897 520.209 959.183 519.479 958.303 519.479C957.432 519.479 956.71 520.209 956.71 521.106C956.71 521.994 957.432 522.725 958.303 522.725ZM958.303 529.083C959.183 529.083 959.897 528.344 959.897 527.456C959.897 526.56 959.183 525.829 958.303 525.829C957.432 525.829 956.71 526.56 956.71 527.456C956.71 528.344 957.432 529.083 958.303 529.083ZM976.715 515.694V530.328H981.363V529H978.35V517.022H981.338V515.694H976.715ZM1022.72 515.694H1018.1V517.022H1021.08V529H1018.07V530.328H1022.72V515.694ZM1029.96 531.797L1031.51 526.302H1029.42L1028.43 531.797H1029.96ZM958.303 545.725C959.183 545.725 959.897 544.994 959.897 544.106C959.897 543.209 959.183 542.479 958.303 542.479C957.432 542.479 956.71 543.209 956.71 544.106C956.71 544.994 957.432 545.725 958.303 545.725ZM958.303 552.083C959.183 552.083 959.897 551.344 959.897 550.456C959.897 549.56 959.183 548.829 958.303 548.829C957.432 548.829 956.71 549.56 956.71 550.456C956.71 551.344 957.432 552.083 958.303 552.083ZM976.715 538.694V553.328H981.363V552H978.35V540.022H981.338V538.694H976.715ZM1167.46 538.694H1162.85V540.022H1165.83V552H1162.81V553.328H1167.46V538.694ZM882.628 576.328H883.815C885.949 576.328 886.629 575.647 886.629 573.531V571.68C886.629 570.385 887.327 569.712 889.236 569.87V568.152C887.327 568.31 886.629 567.637 886.629 566.351V564.491C886.629 562.375 885.949 561.694 883.815 561.694H882.628V563.022H883.5C884.72 563.022 884.961 563.312 884.961 564.732V566.973C884.961 568.127 885.816 568.891 887.443 568.94V569.082C885.816 569.131 884.961 569.895 884.961 571.049V573.29C884.961 574.709 884.72 575 883.5 575H882.628V576.328ZM895.557 577.797L897.101 572.302H895.017L894.03 577.797H895.557ZM889.236 599.328V598H888.364C887.144 598 886.903 597.709 886.903 596.29V594.049C886.903 592.895 886.048 592.131 884.421 592.082V591.94C886.048 591.891 886.903 591.127 886.903 589.973V587.732C886.903 586.312 887.144 586.022 888.364 586.022H889.236V584.694H888.049C885.915 584.694 885.235 585.375 885.235 587.491V589.351C885.235 590.637 884.537 591.31 882.628 591.152V592.87C884.537 592.712 885.235 593.385 885.235 594.68V596.531C885.235 598.647 885.915 599.328 888.049 599.328H889.236ZM989.32 614.725C990.2 614.725 990.914 613.994 990.914 613.106C990.914 612.209 990.2 611.479 989.32 611.479C988.448 611.479 987.726 612.209 987.726 613.106C987.726 613.994 988.448 614.725 989.32 614.725ZM989.32 621.083C990.2 621.083 990.914 620.344 990.914 619.456C990.914 618.56 990.2 617.829 989.32 617.829C988.448 617.829 987.726 618.56 987.726 619.456C987.726 620.344 988.448 621.083 989.32 621.083ZM1091.99 623.797L1093.54 618.302H1091.45L1090.47 623.797H1091.99ZM958.303 637.725C959.183 637.725 959.897 636.994 959.897 636.106C959.897 635.209 959.183 634.479 958.303 634.479C957.432 634.479 956.71 635.209 956.71 636.106C956.71 636.994 957.432 637.725 958.303 637.725ZM958.303 644.083C959.183 644.083 959.897 643.344 959.897 642.456C959.897 641.56 959.183 640.829 958.303 640.829C957.432 640.829 956.71 641.56 956.71 642.456C956.71 643.344 957.432 644.083 958.303 644.083ZM976.715 630.694V645.328H981.363V644H978.35V632.022H981.338V630.694H976.715ZM1188.14 630.694H1183.52V632.022H1186.5V644H1183.49V645.328H1188.14V630.694ZM1195.38 646.797L1196.93 641.302H1194.84L1193.85 646.797H1195.38ZM958.303 660.725C959.183 660.725 959.897 659.994 959.897 659.106C959.897 658.209 959.183 657.479 958.303 657.479C957.432 657.479 956.71 658.209 956.71 659.106C956.71 659.994 957.432 660.725 958.303 660.725ZM958.303 667.083C959.183 667.083 959.897 666.344 959.897 665.456C959.897 664.56 959.183 663.829 958.303 663.829C957.432 663.829 956.71 664.56 956.71 665.456C956.71 666.344 957.432 667.083 958.303 667.083ZM976.715 653.694V668.328H981.363V667H978.35V655.022H981.338V653.694H976.715ZM1112.67 692.797L1114.22 687.302H1112.13L1111.14 692.797H1112.67ZM1102.33 715.797L1103.88 710.302H1101.79L1100.81 715.797H1102.33ZM908.992 722.694H904.377V724.022H907.357V736H904.343V737.328H908.992V722.694ZM916.234 738.797L917.778 733.302H915.695L914.707 738.797H916.234ZM882.628 760.328H883.815C885.949 760.328 886.629 759.647 886.629 757.531V755.68C886.629 754.385 887.327 753.712 889.236 753.87V752.152C887.327 752.31 886.629 751.637 886.629 750.351V748.491C886.629 746.375 885.949 745.694 883.815 745.694H882.628V747.022H883.5C884.72 747.022 884.961 747.312 884.961 748.732V750.973C884.961 752.127 885.816 752.891 887.443 752.94V753.082C885.816 753.131 884.961 753.895 884.961 755.049V757.29C884.961 758.709 884.72 759 883.5 759H882.628V760.328ZM895.557 761.797L897.101 756.302H895.017L894.03 761.797H895.557ZM867.637 768.694H863.021V770.022H866.001V782H862.988V783.328H867.637V768.694Z" fill="#7A7673"></path>
<path d="M905.746 499.467V494.022H904.02V499.467H905.746ZM909.199 499.467V494.022H907.456V499.467H909.199ZM915.944 506.149C917.222 506.149 918.193 505.618 918.625 504.688H918.783V506.008H920.368V499.824C920.368 497.923 919.123 496.828 916.94 496.828C914.998 496.828 913.578 497.84 913.412 499.334H915.039C915.255 498.621 915.944 498.206 916.907 498.206C918.069 498.206 918.716 498.787 918.716 499.824V500.621L916.342 500.746C914.234 500.87 913.072 501.816 913.072 503.427C913.072 505.062 914.217 506.149 915.944 506.149ZM916.459 504.763C915.396 504.763 914.732 504.224 914.732 503.352C914.732 502.472 915.363 501.974 916.567 501.908L918.716 501.8V502.754C918.716 503.908 917.754 504.763 916.459 504.763ZM931.155 499.866C930.931 497.907 929.562 496.77 927.453 496.77C924.938 496.77 923.485 498.272 923.485 500.912V502.024C923.485 504.664 924.938 506.174 927.453 506.174C929.562 506.174 930.931 505.037 931.155 503.111H929.512C929.346 504.132 928.549 504.738 927.437 504.738C925.967 504.738 925.154 503.709 925.154 501.85V501.086C925.154 499.227 925.967 498.197 927.437 498.197C928.541 498.197 929.354 498.82 929.512 499.866H931.155ZM935.982 494.479V497.002H933.592V498.372H935.982V503.261C935.982 505.203 936.995 506.033 939.311 506.033C939.66 506.033 940.971 506 941.154 505.967V504.605C940.955 504.63 939.851 504.647 939.427 504.647C938.273 504.647 937.651 504.157 937.651 503.261V498.372H941.204V497.002H937.626V494.479H935.982ZM948.114 494.835C948.861 494.835 949.401 494.321 949.401 493.607C949.401 492.885 948.861 492.37 948.114 492.37C947.375 492.37 946.827 492.885 946.827 493.607C946.827 494.321 947.375 494.835 948.114 494.835ZM951.932 506V504.655H949.011V496.952H944.404V498.297H947.384V504.655H944.337V506H951.932ZM958.303 506.174C960.744 506.174 962.296 504.614 962.296 502.165V500.795C962.296 498.338 960.744 496.786 958.303 496.786C955.863 496.786 954.311 498.338 954.311 500.795V502.165C954.311 504.614 955.863 506.174 958.303 506.174ZM958.303 498.197C959.748 498.197 960.653 499.235 960.653 500.912V502.049C960.653 503.726 959.748 504.763 958.303 504.763C956.859 504.763 955.954 503.726 955.954 502.049V500.912C955.954 499.235 956.859 498.197 958.303 498.197ZM964.841 506H966.501V500.696C966.501 499.235 967.43 498.264 968.817 498.264C970.153 498.264 970.776 498.994 970.776 500.546V506H972.444V500.131C972.444 497.957 971.382 496.778 969.414 496.778C968.061 496.778 967.04 497.409 966.567 498.529H966.451V496.952H964.841V506ZM978.118 499.467V494.022H976.391V499.467H978.118ZM981.571 499.467V494.022H979.828V499.467H981.571ZM905.746 522.467V517.022H904.02V522.467H905.746ZM909.199 522.467V517.022H907.456V522.467H909.199ZM913.545 522.451C913.545 523.771 914.367 524.601 916.019 524.974L917.372 525.281C918.467 525.53 918.874 525.871 918.874 526.535C918.874 527.323 918.144 527.83 917.006 527.83C915.911 527.83 915.164 527.39 914.981 526.618H913.304C913.454 528.211 914.832 529.166 916.965 529.166C919.173 529.166 920.592 528.07 920.592 526.352C920.592 525.024 919.787 524.26 918.003 523.862L916.691 523.571C915.637 523.339 915.197 522.982 915.197 522.334C915.197 521.587 915.886 521.089 916.948 521.089C917.944 521.089 918.65 521.546 918.799 522.285H920.393C920.244 520.716 918.949 519.77 916.973 519.77C914.898 519.77 913.545 520.832 913.545 522.451ZM926.988 524.966C926.988 522.75 928.126 521.479 930.167 521.479C930.666 521.479 931.255 521.587 931.662 521.737V519.911C931.363 519.786 930.873 519.72 930.358 519.72C928.624 519.72 927.569 520.558 927.212 522.26H926.98V519.952H923.402V521.23H925.37V527.722H923.577V529H929.736V527.722H926.988V524.966ZM941.494 522.866C941.27 520.907 939.9 519.77 937.792 519.77C935.277 519.77 933.824 521.272 933.824 523.912V525.024C933.824 527.664 935.277 529.174 937.792 529.174C939.9 529.174 941.27 528.037 941.494 526.111H939.851C939.685 527.132 938.888 527.738 937.775 527.738C936.306 527.738 935.493 526.709 935.493 524.85V524.086C935.493 522.227 936.306 521.197 937.775 521.197C938.879 521.197 939.693 521.82 939.851 522.866H941.494ZM947.101 522.467V517.022H945.375V522.467H947.101ZM950.555 522.467V517.022H948.811V522.467H950.555ZM905.746 545.467V540.022H904.02V545.467H905.746ZM909.199 545.467V540.022H907.456V545.467H909.199ZM916.251 552.149C917.554 552.149 918.484 551.593 918.916 550.572H919.073V552H920.742V539.424H919.032V544.388H918.874C918.509 543.375 917.554 542.803 916.251 542.803C914.168 542.803 912.839 544.289 912.839 546.654V548.298C912.839 550.664 914.168 552.149 916.251 552.149ZM916.799 550.672C915.404 550.672 914.525 549.692 914.525 548.14V546.787C914.525 545.235 915.404 544.247 916.799 544.247C918.193 544.247 919.073 545.227 919.073 546.787V548.14C919.073 549.692 918.193 550.672 916.799 550.672ZM923.884 545.451C923.884 546.771 924.706 547.601 926.357 547.974L927.71 548.281C928.806 548.53 929.213 548.871 929.213 549.535C929.213 550.323 928.482 550.83 927.345 550.83C926.25 550.83 925.502 550.39 925.32 549.618H923.643C923.792 551.211 925.17 552.166 927.304 552.166C929.512 552.166 930.931 551.07 930.931 549.352C930.931 548.024 930.126 547.26 928.341 546.862L927.03 546.571C925.976 546.339 925.536 545.982 925.536 545.334C925.536 544.587 926.225 544.089 927.287 544.089C928.283 544.089 928.989 544.546 929.138 545.285H930.732C930.583 543.716 929.288 542.77 927.312 542.77C925.237 542.77 923.884 543.832 923.884 545.451ZM935.982 540.479V543.002H933.592V544.372H935.982V549.261C935.982 551.203 936.995 552.033 939.311 552.033C939.66 552.033 940.971 552 941.154 551.967V550.605C940.955 550.63 939.851 550.647 939.427 550.647C938.273 550.647 937.651 550.157 937.651 549.261V544.372H941.204V543.002H937.626V540.479H935.982ZM947.101 545.467V540.022H945.375V545.467H947.101ZM950.555 545.467V540.022H948.811V545.467H950.555ZM905.746 614.467V609.022H904.02V614.467H905.746ZM909.199 614.467V609.022H907.456V614.467H909.199ZM915.944 621.149C917.222 621.149 918.193 620.618 918.625 619.688H918.783V621.008H920.368V614.824C920.368 612.923 919.123 611.828 916.94 611.828C914.998 611.828 913.578 612.84 913.412 614.334H915.039C915.255 613.621 915.944 613.206 916.907 613.206C918.069 613.206 918.716 613.787 918.716 614.824V615.621L916.342 615.746C914.234 615.87 913.072 616.816 913.072 618.427C913.072 620.062 914.217 621.149 915.944 621.149ZM916.459 619.763C915.396 619.763 914.732 619.224 914.732 618.352C914.732 617.472 915.363 616.974 916.567 616.908L918.716 616.8V617.754C918.716 618.908 917.754 619.763 916.459 619.763ZM931.155 614.866C930.931 612.907 929.562 611.77 927.453 611.77C924.938 611.77 923.485 613.272 923.485 615.912V617.024C923.485 619.664 924.938 621.174 927.453 621.174C929.562 621.174 930.931 620.037 931.155 618.111H929.512C929.346 619.132 928.549 619.738 927.437 619.738C925.967 619.738 925.154 618.709 925.154 616.85V616.086C925.154 614.227 925.967 613.197 927.437 613.197C928.541 613.197 929.354 613.82 929.512 614.866H931.155ZM935.982 609.479V612.002H933.592V613.372H935.982V618.261C935.982 620.203 936.995 621.033 939.311 621.033C939.66 621.033 940.971 621 941.154 620.967V619.605C940.955 619.63 939.851 619.647 939.427 619.647C938.273 619.647 937.651 619.157 937.651 618.261V613.372H941.204V612.002H937.626V609.479H935.982ZM948.114 609.835C948.861 609.835 949.401 609.321 949.401 608.607C949.401 607.885 948.861 607.37 948.114 607.37C947.375 607.37 946.827 607.885 946.827 608.607C946.827 609.321 947.375 609.835 948.114 609.835ZM951.932 621V619.655H949.011V611.952H944.404V613.297H947.384V619.655H944.337V621H951.932ZM958.303 621.174C960.744 621.174 962.296 619.614 962.296 617.165V615.795C962.296 613.338 960.744 611.786 958.303 611.786C955.863 611.786 954.311 613.338 954.311 615.795V617.165C954.311 619.614 955.863 621.174 958.303 621.174ZM958.303 613.197C959.748 613.197 960.653 614.235 960.653 615.912V617.049C960.653 618.726 959.748 619.763 958.303 619.763C956.859 619.763 955.954 618.726 955.954 617.049V615.912C955.954 614.235 956.859 613.197 958.303 613.197ZM964.841 621H966.501V615.696C966.501 614.235 967.43 613.264 968.817 613.264C970.153 613.264 970.776 613.994 970.776 615.546V621H972.444V615.131C972.444 612.957 971.382 611.778 969.414 611.778C968.061 611.778 967.04 612.409 966.567 613.529H966.451V611.952H964.841V621ZM978.118 614.467V609.022H976.391V614.467H978.118ZM981.571 614.467V609.022H979.828V614.467H981.571ZM905.746 637.467V632.022H904.02V637.467H905.746ZM909.199 637.467V632.022H907.456V637.467H909.199ZM913.545 637.451C913.545 638.771 914.367 639.601 916.019 639.974L917.372 640.281C918.467 640.53 918.874 640.871 918.874 641.535C918.874 642.323 918.144 642.83 917.006 642.83C915.911 642.83 915.164 642.39 914.981 641.618H913.304C913.454 643.211 914.832 644.166 916.965 644.166C919.173 644.166 920.592 643.07 920.592 641.352C920.592 640.024 919.787 639.26 918.003 638.862L916.691 638.571C915.637 638.339 915.197 637.982 915.197 637.334C915.197 636.587 915.886 636.089 916.948 636.089C917.944 636.089 918.65 636.546 918.799 637.285H920.393C920.244 635.716 918.949 634.77 916.973 634.77C914.898 634.77 913.545 635.832 913.545 637.451ZM926.988 639.966C926.988 637.75 928.126 636.479 930.167 636.479C930.666 636.479 931.255 636.587 931.662 636.737V634.911C931.363 634.786 930.873 634.72 930.358 634.72C928.624 634.72 927.569 635.558 927.212 637.26H926.98V634.952H923.402V636.23H925.37V642.722H923.577V644H929.736V642.722H926.988V639.966ZM941.494 637.866C941.27 635.907 939.9 634.77 937.792 634.77C935.277 634.77 933.824 636.272 933.824 638.912V640.024C933.824 642.664 935.277 644.174 937.792 644.174C939.9 644.174 941.27 643.037 941.494 641.111H939.851C939.685 642.132 938.888 642.738 937.775 642.738C936.306 642.738 935.493 641.709 935.493 639.85V639.086C935.493 637.227 936.306 636.197 937.775 636.197C938.879 636.197 939.693 636.82 939.851 637.866H941.494ZM947.101 637.467V632.022H945.375V637.467H947.101ZM950.555 637.467V632.022H948.811V637.467H950.555ZM905.746 660.467V655.022H904.02V660.467H905.746ZM909.199 660.467V655.022H907.456V660.467H909.199ZM916.251 667.149C917.554 667.149 918.484 666.593 918.916 665.572H919.073V667H920.742V654.424H919.032V659.388H918.874C918.509 658.375 917.554 657.803 916.251 657.803C914.168 657.803 912.839 659.289 912.839 661.654V663.298C912.839 665.664 914.168 667.149 916.251 667.149ZM916.799 665.672C915.404 665.672 914.525 664.692 914.525 663.14V661.787C914.525 660.235 915.404 659.247 916.799 659.247C918.193 659.247 919.073 660.227 919.073 661.787V663.14C919.073 664.692 918.193 665.672 916.799 665.672ZM923.884 660.451C923.884 661.771 924.706 662.601 926.357 662.974L927.71 663.281C928.806 663.53 929.213 663.871 929.213 664.535C929.213 665.323 928.482 665.83 927.345 665.83C926.25 665.83 925.502 665.39 925.32 664.618H923.643C923.792 666.211 925.17 667.166 927.304 667.166C929.512 667.166 930.931 666.07 930.931 664.352C930.931 663.024 930.126 662.26 928.341 661.862L927.03 661.571C925.976 661.339 925.536 660.982 925.536 660.334C925.536 659.587 926.225 659.089 927.287 659.089C928.283 659.089 928.989 659.546 929.138 660.285H930.732C930.583 658.716 929.288 657.77 927.312 657.77C925.237 657.77 923.884 658.832 923.884 660.451ZM935.982 655.479V658.002H933.592V659.372H935.982V664.261C935.982 666.203 936.995 667.033 939.311 667.033C939.66 667.033 940.971 667 941.154 666.967V665.605C940.955 665.63 939.851 665.647 939.427 665.647C938.273 665.647 937.651 665.157 937.651 664.261V659.372H941.204V658.002H937.626V655.479H935.982ZM947.101 660.467V655.022H945.375V660.467H947.101ZM950.555 660.467V655.022H948.811V660.467H950.555Z" fill="#BD816E"></path>
<path d="M1009.13 499.467V494.022H1007.41V499.467H1009.13ZM1012.59 499.467V494.022H1010.84V499.467H1012.59ZM1019.33 506.149C1020.61 506.149 1021.58 505.618 1022.01 504.688H1022.17V506.008H1023.76V499.824C1023.76 497.923 1022.51 496.828 1020.33 496.828C1018.39 496.828 1016.97 497.84 1016.8 499.334H1018.43C1018.64 498.621 1019.33 498.206 1020.29 498.206C1021.46 498.206 1022.1 498.787 1022.1 499.824V500.621L1019.73 500.746C1017.62 500.87 1016.46 501.816 1016.46 503.427C1016.46 505.062 1017.61 506.149 1019.33 506.149ZM1019.85 504.763C1018.78 504.763 1018.12 504.224 1018.12 503.352C1018.12 502.472 1018.75 501.974 1019.95 501.908L1022.1 501.8V502.754C1022.1 503.908 1021.14 504.763 1019.85 504.763ZM1034.54 499.866C1034.32 497.907 1032.95 496.77 1030.84 496.77C1028.33 496.77 1026.87 498.272 1026.87 500.912V502.024C1026.87 504.664 1028.33 506.174 1030.84 506.174C1032.95 506.174 1034.32 505.037 1034.54 503.111H1032.9C1032.73 504.132 1031.94 504.738 1030.82 504.738C1029.36 504.738 1028.54 503.709 1028.54 501.85V501.086C1028.54 499.227 1029.36 498.197 1030.82 498.197C1031.93 498.197 1032.74 498.82 1032.9 499.866H1034.54ZM1044.88 499.866C1044.66 497.907 1043.29 496.77 1041.18 496.77C1038.66 496.77 1037.21 498.272 1037.21 500.912V502.024C1037.21 504.664 1038.66 506.174 1041.18 506.174C1043.29 506.174 1044.66 505.037 1044.88 503.111H1043.24C1043.07 504.132 1042.28 504.738 1041.16 504.738C1039.69 504.738 1038.88 503.709 1038.88 501.85V501.086C1038.88 499.227 1039.69 498.197 1041.16 498.197C1042.27 498.197 1043.08 498.82 1043.24 499.866H1044.88ZM1053.65 503.609C1053.43 504.348 1052.62 504.805 1051.55 504.805C1050.12 504.805 1049.2 503.825 1049.2 502.298V501.891H1055.27V500.912C1055.27 498.338 1053.83 496.778 1051.47 496.778C1049.12 496.778 1047.57 498.347 1047.57 500.729V502.107C1047.57 504.68 1049.02 506.174 1051.56 506.174C1053.51 506.174 1055 505.128 1055.25 503.609H1053.65ZM1051.45 498.139C1052.82 498.139 1053.64 499.11 1053.64 500.721H1049.2C1049.2 499.102 1050.05 498.139 1051.45 498.139ZM1062.4 496.811C1061.09 496.811 1060.16 497.359 1059.73 498.388H1059.57V496.952H1057.91V509.038H1059.62V504.564H1059.77C1060.14 505.577 1061.09 506.149 1062.4 506.149C1064.48 506.149 1065.81 504.664 1065.81 502.306V500.654C1065.81 498.297 1064.48 496.811 1062.4 496.811ZM1061.84 498.289C1063.24 498.289 1064.12 499.268 1064.12 500.82V502.173C1064.12 503.726 1063.24 504.713 1061.84 504.713C1060.45 504.713 1059.57 503.734 1059.57 502.173V500.82C1059.57 499.268 1060.45 498.289 1061.84 498.289ZM1070.39 494.479V497.002H1068V498.372H1070.39V503.261C1070.39 505.203 1071.4 506.033 1073.72 506.033C1074.06 506.033 1075.38 506 1075.56 505.967V504.605C1075.36 504.63 1074.25 504.647 1073.83 504.647C1072.68 504.647 1072.06 504.157 1072.06 503.261V498.372H1075.61V497.002H1072.03V494.479H1070.39ZM1081.51 499.467V494.022H1079.78V499.467H1081.51ZM1084.96 499.467V494.022H1083.22V499.467H1084.96ZM988.457 522.467V517.022H986.73V522.467H988.457ZM991.91 522.467V517.022H990.167V522.467H991.91ZM995.118 521.87L998.497 523.688L995.118 525.497L995.799 526.726L999.094 524.684L998.978 528.543H1000.34L1000.22 524.684L1003.52 526.726L1004.2 525.497L1000.82 523.688L1004.2 521.87L1003.52 520.649L1000.22 522.683L1000.34 518.823H998.978L999.094 522.691L995.799 520.641L995.118 521.87ZM1009.13 522.467V517.022H1007.41V522.467H1009.13ZM1012.59 522.467V517.022H1010.84V522.467H1012.59ZM988.457 545.467V540.022H986.73V545.467H988.457ZM991.91 545.467V540.022H990.167V545.467H991.91ZM1004.22 552V550.531H1000.94V540.022H999.244L995.774 542.296V544.04L999.102 541.873H999.235V550.531H995.799V552H1004.22ZM1010.01 552.266C1012.69 552.266 1014.18 550.033 1014.18 546.015C1014.18 541.989 1012.69 539.756 1010.01 539.756C1007.32 539.756 1005.83 541.989 1005.83 546.015C1005.83 550.033 1007.32 552.266 1010.01 552.266ZM1007.53 546.015C1007.53 542.886 1008.39 541.234 1010.01 541.234C1011.08 541.234 1011.82 541.973 1012.2 543.392L1007.57 547.044C1007.54 546.721 1007.53 546.38 1007.53 546.015ZM1010.01 550.796C1008.93 550.796 1008.19 550.058 1007.81 548.646L1012.44 544.969C1012.46 545.301 1012.47 545.642 1012.47 546.015C1012.47 549.136 1011.62 550.796 1010.01 550.796ZM1020.34 552.266C1023.03 552.266 1024.52 550.033 1024.52 546.015C1024.52 541.989 1023.03 539.756 1020.34 539.756C1017.66 539.756 1016.17 541.989 1016.17 546.015C1016.17 550.033 1017.66 552.266 1020.34 552.266ZM1017.87 546.015C1017.87 542.886 1018.73 541.234 1020.34 541.234C1021.42 541.234 1022.16 541.973 1022.54 543.392L1017.9 547.044C1017.88 546.721 1017.87 546.38 1017.87 546.015ZM1020.34 550.796C1019.27 550.796 1018.53 550.058 1018.15 548.646L1022.78 544.969C1022.8 545.301 1022.81 545.642 1022.81 546.015C1022.81 549.136 1021.95 550.796 1020.34 550.796ZM1030.68 552.083C1031.55 552.083 1032.27 551.344 1032.27 550.456C1032.27 549.56 1031.55 548.829 1030.68 548.829C1029.8 548.829 1029.08 549.56 1029.08 550.456C1029.08 551.344 1029.8 552.083 1030.68 552.083ZM1045.57 552V550.531H1042.29V540.022H1040.6L1037.13 542.296V544.04L1040.46 541.873H1040.59V550.531H1037.15V552H1045.57ZM1051.36 552.266C1054.04 552.266 1055.54 550.033 1055.54 546.015C1055.54 541.989 1054.04 539.756 1051.36 539.756C1048.68 539.756 1047.19 541.989 1047.19 546.015C1047.19 550.033 1048.68 552.266 1051.36 552.266ZM1048.89 546.015C1048.89 542.886 1049.74 541.234 1051.36 541.234C1052.44 541.234 1053.18 541.973 1053.55 543.392L1048.92 547.044C1048.9 546.721 1048.89 546.38 1048.89 546.015ZM1051.36 550.796C1050.28 550.796 1049.54 550.058 1049.17 548.646L1053.79 544.969C1053.82 545.301 1053.83 545.642 1053.83 546.015C1053.83 549.136 1052.97 550.796 1051.36 550.796ZM1061.6 552.241C1064.11 552.241 1065.79 550.581 1065.79 548.115C1065.79 545.766 1064.25 544.131 1062.03 544.131C1060.96 544.131 1060.09 544.513 1059.52 545.235H1059.38L1059.7 541.524H1065.1V540.022H1058.33L1057.74 546.829H1059.38C1059.84 546.015 1060.66 545.567 1061.67 545.567C1063.14 545.567 1064.12 546.613 1064.12 548.157C1064.12 549.701 1063.14 550.73 1061.67 550.73C1060.35 550.73 1059.36 549.925 1059.22 548.754H1057.56C1057.66 550.83 1059.29 552.241 1061.6 552.241ZM1072.03 552.083C1072.91 552.083 1073.62 551.344 1073.62 550.456C1073.62 549.56 1072.91 548.829 1072.03 548.829C1071.15 548.829 1070.44 549.56 1070.44 550.456C1070.44 551.344 1071.15 552.083 1072.03 552.083ZM1086.93 552V550.531H1083.65V540.022H1081.95L1078.48 542.296V544.04L1081.81 541.873H1081.95V550.531H1078.51V552H1086.93ZM1093.97 552H1095.57V549.543H1097.33V548.09H1095.56V544.778H1094.01V548.09H1090.38V547.974L1094.24 540.022H1092.49L1088.55 548.165V549.543H1093.97V552ZM1103.05 552.083C1103.93 552.083 1104.64 551.344 1104.64 550.456C1104.64 549.56 1103.93 548.829 1103.05 548.829C1102.17 548.829 1101.45 549.56 1101.45 550.456C1101.45 551.344 1102.17 552.083 1103.05 552.083ZM1110.41 552H1112.24L1117.53 541.541V540.022H1109.38V541.508H1115.77V541.624L1110.41 552ZM1119.51 543.907C1119.51 546.115 1121.06 547.717 1123.2 547.717C1123.96 547.717 1124.76 547.393 1125.14 546.912L1125.28 546.97C1125.2 547.119 1125.12 547.252 1124.84 547.642L1121.65 552H1123.62C1123.77 551.809 1126.06 548.63 1126.26 548.331C1127.43 546.621 1127.92 545.326 1127.92 543.948C1127.92 541.5 1126.18 539.773 1123.72 539.773C1121.28 539.773 1119.51 541.524 1119.51 543.907ZM1123.72 541.259C1125.15 541.259 1126.24 542.371 1126.24 543.832C1126.24 545.293 1125.15 546.405 1123.72 546.405C1122.28 546.405 1121.19 545.293 1121.19 543.832C1121.19 542.371 1122.28 541.259 1123.72 541.259ZM1134.06 545.725C1134.94 545.725 1135.66 544.994 1135.66 544.106C1135.66 543.209 1134.94 542.479 1134.06 542.479C1133.19 542.479 1132.47 543.209 1132.47 544.106C1132.47 544.994 1133.19 545.725 1134.06 545.725ZM1134.06 552.083C1134.94 552.083 1135.66 551.344 1135.66 550.456C1135.66 549.56 1134.94 548.829 1134.06 548.829C1133.19 548.829 1132.47 549.56 1132.47 550.456C1132.47 551.344 1133.19 552.083 1134.06 552.083ZM1139.86 544.87L1143.24 546.688L1139.86 548.497L1140.54 549.726L1143.84 547.684L1143.72 551.543H1145.08L1144.97 547.684L1148.26 549.726L1148.94 548.497L1145.56 546.688L1148.94 544.87L1148.26 543.649L1144.97 545.683L1145.08 541.823H1143.72L1143.84 545.691L1140.54 543.641L1139.86 544.87ZM1153.88 545.467V540.022H1152.15V545.467H1153.88ZM1157.33 545.467V540.022H1155.59V545.467H1157.33ZM1009.13 614.467V609.022H1007.41V614.467H1009.13ZM1012.59 614.467V609.022H1010.84V614.467H1012.59ZM1019.33 621.149C1020.61 621.149 1021.58 620.618 1022.01 619.688H1022.17V621.008H1023.76V614.824C1023.76 612.923 1022.51 611.828 1020.33 611.828C1018.39 611.828 1016.97 612.84 1016.8 614.334H1018.43C1018.64 613.621 1019.33 613.206 1020.29 613.206C1021.46 613.206 1022.1 613.787 1022.1 614.824V615.621L1019.73 615.746C1017.62 615.87 1016.46 616.816 1016.46 618.427C1016.46 620.062 1017.61 621.149 1019.33 621.149ZM1019.85 619.763C1018.78 619.763 1018.12 619.224 1018.12 618.352C1018.12 617.472 1018.75 616.974 1019.95 616.908L1022.1 616.8V617.754C1022.1 618.908 1021.14 619.763 1019.85 619.763ZM1034.54 614.866C1034.32 612.907 1032.95 611.77 1030.84 611.77C1028.33 611.77 1026.87 613.272 1026.87 615.912V617.024C1026.87 619.664 1028.33 621.174 1030.84 621.174C1032.95 621.174 1034.32 620.037 1034.54 618.111H1032.9C1032.73 619.132 1031.94 619.738 1030.82 619.738C1029.36 619.738 1028.54 618.709 1028.54 616.85V616.086C1028.54 614.227 1029.36 613.197 1030.82 613.197C1031.93 613.197 1032.74 613.82 1032.9 614.866H1034.54ZM1044.88 614.866C1044.66 612.907 1043.29 611.77 1041.18 611.77C1038.66 611.77 1037.21 613.272 1037.21 615.912V617.024C1037.21 619.664 1038.66 621.174 1041.18 621.174C1043.29 621.174 1044.66 620.037 1044.88 618.111H1043.24C1043.07 619.132 1042.28 619.738 1041.16 619.738C1039.69 619.738 1038.88 618.709 1038.88 616.85V616.086C1038.88 614.227 1039.69 613.197 1041.16 613.197C1042.27 613.197 1043.08 613.82 1043.24 614.866H1044.88ZM1053.65 618.609C1053.43 619.348 1052.62 619.805 1051.55 619.805C1050.12 619.805 1049.2 618.825 1049.2 617.298V616.891H1055.27V615.912C1055.27 613.338 1053.83 611.778 1051.47 611.778C1049.12 611.778 1047.57 613.347 1047.57 615.729V617.107C1047.57 619.68 1049.02 621.174 1051.56 621.174C1053.51 621.174 1055 620.128 1055.25 618.609H1053.65ZM1051.45 613.139C1052.82 613.139 1053.64 614.11 1053.64 615.721H1049.2C1049.2 614.102 1050.05 613.139 1051.45 613.139ZM1062.4 611.811C1061.09 611.811 1060.16 612.359 1059.73 613.388H1059.57V611.952H1057.91V624.038H1059.62V619.564H1059.77C1060.14 620.577 1061.09 621.149 1062.4 621.149C1064.48 621.149 1065.81 619.664 1065.81 617.306V615.654C1065.81 613.297 1064.48 611.811 1062.4 611.811ZM1061.84 613.289C1063.24 613.289 1064.12 614.268 1064.12 615.82V617.173C1064.12 618.726 1063.24 619.713 1061.84 619.713C1060.45 619.713 1059.57 618.734 1059.57 617.173V615.82C1059.57 614.268 1060.45 613.289 1061.84 613.289ZM1070.39 609.479V612.002H1068V613.372H1070.39V618.261C1070.39 620.203 1071.4 621.033 1073.72 621.033C1074.06 621.033 1075.38 621 1075.56 620.967V619.605C1075.36 619.63 1074.25 619.647 1073.83 619.647C1072.68 619.647 1072.06 619.157 1072.06 618.261V613.372H1075.61V612.002H1072.03V609.479H1070.39ZM1081.51 614.467V609.022H1079.78V614.467H1081.51ZM1084.96 614.467V609.022H1083.22V614.467H1084.96ZM988.457 637.467V632.022H986.73V637.467H988.457ZM991.91 637.467V632.022H990.167V637.467H991.91ZM1003.46 634.952H1001.8V640.256C1001.8 641.717 1000.87 642.688 999.484 642.688C998.148 642.688 997.525 641.958 997.525 640.414V634.952H995.857V640.821C995.857 642.996 996.919 644.174 998.887 644.174C1000.24 644.174 1001.26 643.543 1001.73 642.431H1001.85V644H1003.46V634.952ZM1006.59 637.451C1006.59 638.771 1007.42 639.601 1009.07 639.974L1010.42 640.281C1011.52 640.53 1011.92 640.871 1011.92 641.535C1011.92 642.323 1011.19 642.83 1010.06 642.83C1008.96 642.83 1008.21 642.39 1008.03 641.618H1006.35C1006.5 643.211 1007.88 644.166 1010.01 644.166C1012.22 644.166 1013.64 643.07 1013.64 641.352C1013.64 640.024 1012.84 639.26 1011.05 638.862L1009.74 638.571C1008.69 638.339 1008.25 637.982 1008.25 637.334C1008.25 636.587 1008.93 636.089 1010 636.089C1010.99 636.089 1011.7 636.546 1011.85 637.285H1013.44C1013.29 635.716 1012 634.77 1010.02 634.77C1007.95 634.77 1006.59 635.832 1006.59 637.451ZM1022.64 641.609C1022.41 642.348 1021.61 642.805 1020.54 642.805C1019.11 642.805 1018.19 641.825 1018.19 640.298V639.891H1024.25V638.912C1024.25 636.338 1022.82 634.778 1020.45 634.778C1018.1 634.778 1016.55 636.347 1016.55 638.729V640.107C1016.55 642.68 1018 644.174 1020.54 644.174C1022.49 644.174 1023.99 643.128 1024.23 641.609H1022.64ZM1020.44 636.139C1021.81 636.139 1022.62 637.11 1022.62 638.721H1018.19C1018.19 637.102 1019.03 636.139 1020.44 636.139ZM1030.38 639.966C1030.38 637.75 1031.51 636.479 1033.56 636.479C1034.05 636.479 1034.64 636.587 1035.05 636.737V634.911C1034.75 634.786 1034.26 634.72 1033.75 634.72C1032.01 634.72 1030.96 635.558 1030.6 637.26H1030.37V634.952H1026.79V636.23H1028.76V642.722H1026.96V644H1033.12V642.722H1030.38V639.966ZM1045.57 644V642.531H1042.29V632.022H1040.6L1037.13 634.296V636.04L1040.46 633.873H1040.59V642.531H1037.15V644H1045.57ZM1051.65 645.66C1052.42 645.66 1053.25 645.527 1053.64 645.345V644.299C1053.29 644.465 1052.52 644.589 1051.78 644.589C1049.24 644.589 1048.12 642.954 1048.12 639.252V638.065C1048.12 634.413 1049.15 632.827 1051.47 632.827C1053.65 632.827 1054.74 634.255 1054.74 637.177V639.443C1054.74 640.223 1054.47 640.514 1053.73 640.514H1052.43V637.019C1052.43 636.38 1052.1 635.973 1051.58 635.973C1051.05 635.973 1050.72 636.38 1050.72 637.019V640.472C1050.72 641.12 1051.12 641.526 1051.75 641.526H1053.93C1055.13 641.526 1055.83 640.738 1055.83 639.385V636.961C1055.83 633.566 1054.29 631.748 1051.48 631.748C1048.53 631.748 1046.99 633.873 1046.99 638.015V639.435C1046.99 643.568 1048.57 645.66 1051.65 645.66ZM1063.99 641.609C1063.77 642.348 1062.96 642.805 1061.89 642.805C1060.46 642.805 1059.54 641.825 1059.54 640.298V639.891H1065.61V638.912C1065.61 636.338 1064.17 634.778 1061.81 634.778C1059.46 634.778 1057.91 636.347 1057.91 638.729V640.107C1057.91 642.68 1059.36 644.174 1061.9 644.174C1063.85 644.174 1065.34 643.128 1065.58 641.609H1063.99ZM1061.79 636.139C1063.16 636.139 1063.97 637.11 1063.97 638.721H1059.54C1059.54 637.102 1060.39 636.139 1061.79 636.139ZM1072.06 640.638L1074.2 644H1076.1L1073.04 639.418L1076.07 634.952H1074.21L1072.13 638.281H1072.01L1069.91 634.952H1067.97L1071.03 639.484L1067.99 644H1069.81L1071.95 640.638H1072.06ZM1081.36 644.149C1082.64 644.149 1083.61 643.618 1084.05 642.688H1084.2V644.008H1085.79V637.824C1085.79 635.923 1084.54 634.828 1082.36 634.828C1080.42 634.828 1079 635.84 1078.83 637.334H1080.46C1080.68 636.621 1081.36 636.206 1082.33 636.206C1083.49 636.206 1084.14 636.787 1084.14 637.824V638.621L1081.76 638.746C1079.65 638.87 1078.49 639.816 1078.49 641.427C1078.49 643.062 1079.64 644.149 1081.36 644.149ZM1081.88 642.763C1080.82 642.763 1080.15 642.224 1080.15 641.352C1080.15 640.472 1080.78 639.974 1081.99 639.908L1084.14 639.8V640.754C1084.14 641.908 1083.17 642.763 1081.88 642.763ZM1097.13 637.235C1097.13 635.633 1096.49 634.778 1095.27 634.778C1094.38 634.778 1093.68 635.334 1093.46 636.23H1093.28C1093.09 635.309 1092.5 634.778 1091.65 634.778C1090.79 634.778 1090.15 635.326 1089.94 636.264H1089.75V634.952H1088.28V644H1089.74V637.866C1089.74 636.87 1090.2 636.255 1090.93 636.255C1091.62 636.255 1091.99 636.77 1091.99 637.741V644H1093.45V637.866C1093.45 636.87 1093.89 636.255 1094.61 636.255C1095.29 636.255 1095.67 636.778 1095.67 637.75V644H1097.13V637.235ZM1103.75 634.811C1102.44 634.811 1101.51 635.359 1101.09 636.388H1100.93V634.952H1099.26V647.038H1100.97V642.564H1101.13C1101.49 643.577 1102.44 644.149 1103.75 644.149C1105.84 644.149 1107.16 642.664 1107.16 640.306V638.654C1107.16 636.297 1105.84 634.811 1103.75 634.811ZM1103.2 636.289C1104.59 636.289 1105.48 637.268 1105.48 638.82V640.173C1105.48 641.726 1104.59 642.713 1103.2 642.713C1101.81 642.713 1100.93 641.734 1100.93 640.173V638.82C1100.93 637.268 1101.81 636.289 1103.2 636.289ZM1117.35 644V642.655H1114.45V631.424H1109.82V632.777H1112.79V642.655H1109.76V644H1117.35ZM1126.02 641.609C1125.8 642.348 1124.99 642.805 1123.92 642.805C1122.5 642.805 1121.57 641.825 1121.57 640.298V639.891H1127.64V638.912C1127.64 636.338 1126.21 634.778 1123.84 634.778C1121.49 634.778 1119.94 636.347 1119.94 638.729V640.107C1119.94 642.68 1121.39 644.174 1123.93 644.174C1125.88 644.174 1127.38 643.128 1127.62 641.609H1126.02ZM1123.82 636.139C1125.19 636.139 1126.01 637.11 1126.01 638.721H1121.57C1121.57 637.102 1122.42 636.139 1123.82 636.139ZM1134.06 644.083C1134.94 644.083 1135.66 643.344 1135.66 642.456C1135.66 641.56 1134.94 640.829 1134.06 640.829C1133.18 640.829 1132.47 641.56 1132.47 642.456C1132.47 643.344 1133.18 644.083 1134.06 644.083ZM1148.27 637.866C1148.05 635.907 1146.68 634.77 1144.57 634.77C1142.05 634.77 1140.6 636.272 1140.6 638.912V640.024C1140.6 642.664 1142.05 644.174 1144.57 644.174C1146.68 644.174 1148.05 643.037 1148.27 641.111H1146.63C1146.46 642.132 1145.66 642.738 1144.55 642.738C1143.08 642.738 1142.27 641.709 1142.27 639.85V639.086C1142.27 637.227 1143.08 636.197 1144.55 636.197C1145.66 636.197 1146.47 636.82 1146.63 637.866H1148.27ZM1154.74 644.174C1157.18 644.174 1158.73 642.614 1158.73 640.165V638.795C1158.73 636.338 1157.18 634.786 1154.74 634.786C1152.3 634.786 1150.75 636.338 1150.75 638.795V640.165C1150.75 642.614 1152.3 644.174 1154.74 644.174ZM1154.74 636.197C1156.18 636.197 1157.09 637.235 1157.09 638.912V640.049C1157.09 641.726 1156.18 642.763 1154.74 642.763C1153.3 642.763 1152.39 641.726 1152.39 640.049V638.912C1152.39 637.235 1153.3 636.197 1154.74 636.197ZM1169.5 637.235C1169.5 635.633 1168.86 634.778 1167.64 634.778C1166.75 634.778 1166.05 635.334 1165.83 636.23H1165.65C1165.46 635.309 1164.87 634.778 1164.03 634.778C1163.16 634.778 1162.52 635.326 1162.31 636.264H1162.12V634.952H1160.65V644H1162.12V637.866C1162.12 636.87 1162.57 636.255 1163.3 636.255C1163.99 636.255 1164.37 636.77 1164.37 637.741V644H1165.82V637.866C1165.82 636.87 1166.27 636.255 1166.98 636.255C1167.66 636.255 1168.04 636.778 1168.04 637.75V644H1169.5V637.235ZM1174.55 637.467V632.022H1172.83V637.467H1174.55ZM1178.01 637.467V632.022H1176.26V637.467H1178.01ZM926.424 683.467V678.022H924.697V683.467H926.424ZM929.877 683.467V678.022H928.134V683.467H929.877ZM942.183 690V688.531H938.904V678.022H937.211L933.741 680.296V682.04L937.07 679.873H937.203V688.531H933.766V690H942.183ZM947.973 690.266C950.654 690.266 952.148 688.033 952.148 684.015C952.148 679.989 950.654 677.756 947.973 677.756C945.292 677.756 943.798 679.989 943.798 684.015C943.798 688.033 945.292 690.266 947.973 690.266ZM945.499 684.015C945.499 680.886 946.354 679.234 947.973 679.234C949.052 679.234 949.791 679.973 950.164 681.392L945.533 685.044C945.508 684.721 945.499 684.38 945.499 684.015ZM947.973 688.796C946.894 688.796 946.155 688.058 945.782 686.646L950.405 682.969C950.43 683.301 950.438 683.642 950.438 684.015C950.438 687.136 949.583 688.796 947.973 688.796ZM958.312 690.266C960.993 690.266 962.487 688.033 962.487 684.015C962.487 679.989 960.993 677.756 958.312 677.756C955.631 677.756 954.137 679.989 954.137 684.015C954.137 688.033 955.631 690.266 958.312 690.266ZM955.838 684.015C955.838 680.886 956.693 679.234 958.312 679.234C959.391 679.234 960.13 679.973 960.503 681.392L955.871 685.044C955.846 684.721 955.838 684.38 955.838 684.015ZM958.312 688.796C957.233 688.796 956.494 688.058 956.12 686.646L960.744 682.969C960.769 683.301 960.777 683.642 960.777 684.015C960.777 687.136 959.922 688.796 958.312 688.796ZM968.642 690.083C969.522 690.083 970.236 689.344 970.236 688.456C970.236 687.56 969.522 686.829 968.642 686.829C967.762 686.829 967.049 687.56 967.049 688.456C967.049 689.344 967.762 690.083 968.642 690.083ZM976.009 690H977.836L983.123 679.541V678.022H974.972V679.508H981.363V679.624L976.009 690ZM993.877 690V688.531H990.598V678.022H988.905L985.435 680.296V682.04L988.764 679.873H988.897V688.531H985.46V690H993.877ZM999.659 690.083C1000.54 690.083 1001.25 689.344 1001.25 688.456C1001.25 687.56 1000.54 686.829 999.659 686.829C998.779 686.829 998.065 687.56 998.065 688.456C998.065 689.344 998.779 690.083 999.659 690.083ZM1014.55 690V688.531H1011.28V678.022H1009.58L1006.11 680.296V682.04L1009.44 679.873H1009.57V688.531H1006.14V690H1014.55ZM1017.36 690H1019.19L1024.48 679.541V678.022H1016.33V679.508H1022.72V679.624L1017.36 690ZM1034.94 686.107C1034.94 683.916 1033.37 682.297 1031.24 682.297C1030.48 682.297 1029.65 682.637 1029.27 683.102L1029.14 683.052C1029.21 682.903 1029.21 682.886 1029.58 682.372L1032.77 678.022H1030.8C1030.64 678.221 1028.35 681.4 1028.16 681.691C1027 683.359 1026.52 684.654 1026.52 686.074C1026.52 688.522 1028.27 690.249 1030.73 690.249C1033.17 690.249 1034.94 688.498 1034.94 686.107ZM1030.72 688.755C1029.29 688.755 1028.2 687.651 1028.2 686.19C1028.2 684.721 1029.29 683.617 1030.72 683.617C1032.16 683.617 1033.25 684.721 1033.25 686.19C1033.25 687.651 1032.16 688.755 1030.72 688.755ZM1041.01 690.083C1041.89 690.083 1042.61 689.344 1042.61 688.456C1042.61 687.56 1041.89 686.829 1041.01 686.829C1040.13 686.829 1039.42 687.56 1039.42 688.456C1039.42 689.344 1040.13 690.083 1041.01 690.083ZM1055.91 690V688.531H1052.63V678.022H1050.94L1047.47 680.296V682.04L1050.8 679.873H1050.93V688.531H1047.49V690H1055.91ZM1066.25 690V688.531H1062.97V678.022H1061.28L1057.81 680.296V682.04L1061.14 679.873H1061.27V688.531H1057.83V690H1066.25ZM1071.94 690.241C1074.45 690.241 1076.13 688.581 1076.13 686.115C1076.13 683.766 1074.59 682.131 1072.37 682.131C1071.3 682.131 1070.43 682.513 1069.86 683.235H1069.72L1070.04 679.524H1075.44V678.022H1068.67L1068.08 684.829H1069.72C1070.18 684.015 1071 683.567 1072.01 683.567C1073.47 683.567 1074.46 684.613 1074.46 686.157C1074.46 687.701 1073.48 688.73 1072.01 688.73C1070.69 688.73 1069.7 687.925 1069.56 686.754H1067.9C1068 688.83 1069.63 690.241 1071.94 690.241ZM1082.37 683.725C1083.25 683.725 1083.96 682.994 1083.96 682.106C1083.96 681.209 1083.25 680.479 1082.37 680.479C1081.5 680.479 1080.78 681.209 1080.78 682.106C1080.78 682.994 1081.5 683.725 1082.37 683.725ZM1082.37 690.083C1083.25 690.083 1083.96 689.344 1083.96 688.456C1083.96 687.56 1083.25 686.829 1082.37 686.829C1081.5 686.829 1080.78 687.56 1080.78 688.456C1080.78 689.344 1081.5 690.083 1082.37 690.083ZM1088.17 682.87L1091.55 684.688L1088.17 686.497L1088.85 687.726L1092.14 685.684L1092.03 689.543H1093.39L1093.27 685.684L1096.57 687.726L1097.25 686.497L1093.87 684.688L1097.25 682.87L1096.57 681.649L1093.27 683.683L1093.39 679.823H1092.03L1092.14 683.691L1088.85 681.641L1088.17 682.87ZM1102.18 683.467V678.022H1100.46V683.467H1102.18ZM1105.64 683.467V678.022H1103.89V683.467H1105.64ZM926.424 706.467V701.022H924.697V706.467H926.424ZM929.877 706.467V701.022H928.134V706.467H929.877ZM942.183 713V711.531H938.904V701.022H937.211L933.741 703.296V705.04L937.07 702.873H937.203V711.531H933.766V713H942.183ZM947.973 713.266C950.654 713.266 952.148 711.033 952.148 707.015C952.148 702.989 950.654 700.756 947.973 700.756C945.292 700.756 943.798 702.989 943.798 707.015C943.798 711.033 945.292 713.266 947.973 713.266ZM945.499 707.015C945.499 703.886 946.354 702.234 947.973 702.234C949.052 702.234 949.791 702.973 950.164 704.392L945.533 708.044C945.508 707.721 945.499 707.38 945.499 707.015ZM947.973 711.796C946.894 711.796 946.155 711.058 945.782 709.646L950.405 705.969C950.43 706.301 950.438 706.642 950.438 707.015C950.438 710.136 949.583 711.796 947.973 711.796ZM958.312 713.266C960.993 713.266 962.487 711.033 962.487 707.015C962.487 702.989 960.993 700.756 958.312 700.756C955.631 700.756 954.137 702.989 954.137 707.015C954.137 711.033 955.631 713.266 958.312 713.266ZM955.838 707.015C955.838 703.886 956.693 702.234 958.312 702.234C959.391 702.234 960.13 702.973 960.503 704.392L955.871 708.044C955.846 707.721 955.838 707.38 955.838 707.015ZM958.312 711.796C957.233 711.796 956.494 711.058 956.12 709.646L960.744 705.969C960.769 706.301 960.777 706.642 960.777 707.015C960.777 710.136 959.922 711.796 958.312 711.796ZM968.642 713.083C969.522 713.083 970.236 712.344 970.236 711.456C970.236 710.56 969.522 709.829 968.642 709.829C967.762 709.829 967.049 710.56 967.049 711.456C967.049 712.344 967.762 713.083 968.642 713.083ZM979.014 713.266C981.596 713.266 983.38 711.846 983.38 709.788C983.38 708.293 982.376 707.057 980.89 706.741V706.608C982.135 706.268 982.899 705.255 982.899 703.96C982.899 702.084 981.289 700.756 979.014 700.756C976.74 700.756 975.13 702.084 975.13 703.96C975.13 705.247 975.901 706.276 977.13 706.608V706.741C975.619 707.098 974.648 708.31 974.648 709.788C974.648 711.846 976.424 713.266 979.014 713.266ZM979.014 706.061C977.694 706.061 976.823 705.28 976.823 704.11C976.823 702.948 977.694 702.167 979.014 702.167C980.326 702.167 981.206 702.948 981.206 704.11C981.206 705.28 980.326 706.061 979.014 706.061ZM979.014 711.846C977.47 711.846 976.408 710.95 976.408 709.646C976.408 708.343 977.47 707.447 979.014 707.447C980.558 707.447 981.621 708.343 981.621 709.646C981.621 710.95 980.558 711.846 979.014 711.846ZM993.877 713V711.531H990.598V701.022H988.905L985.435 703.296V705.04L988.764 702.873H988.897V711.531H985.46V713H993.877ZM999.659 713.083C1000.54 713.083 1001.25 712.344 1001.25 711.456C1001.25 710.56 1000.54 709.829 999.659 709.829C998.779 709.829 998.065 710.56 998.065 711.456C998.065 712.344 998.779 713.083 999.659 713.083ZM1014.55 713V711.531H1011.28V701.022H1009.58L1006.11 703.296V705.04L1009.44 702.873H1009.57V711.531H1006.14V713H1014.55ZM1016.12 704.907C1016.12 707.115 1017.67 708.717 1019.81 708.717C1020.57 708.717 1021.37 708.393 1021.76 707.912L1021.9 707.97C1021.81 708.119 1021.73 708.252 1021.45 708.642L1018.26 713H1020.23C1020.38 712.809 1022.67 709.63 1022.87 709.331C1024.05 707.621 1024.54 706.326 1024.54 704.948C1024.54 702.5 1022.79 700.773 1020.33 700.773C1017.9 700.773 1016.12 702.524 1016.12 704.907ZM1020.33 702.259C1021.76 702.259 1022.85 703.371 1022.85 704.832C1022.85 706.293 1021.76 707.405 1020.33 707.405C1018.89 707.405 1017.8 706.293 1017.8 704.832C1017.8 703.371 1018.89 702.259 1020.33 702.259ZM1030.58 713.241C1033.09 713.241 1034.78 711.581 1034.78 709.115C1034.78 706.766 1033.23 705.131 1031.02 705.131C1029.94 705.131 1029.07 705.513 1028.51 706.235H1028.37L1028.68 702.524H1034.09V701.022H1027.31L1026.72 707.829H1028.37C1028.82 707.015 1029.65 706.567 1030.66 706.567C1032.12 706.567 1033.11 707.613 1033.11 709.157C1033.11 710.701 1032.13 711.73 1030.66 711.73C1029.34 711.73 1028.34 710.925 1028.2 709.754H1026.54C1026.64 711.83 1028.28 713.241 1030.58 713.241ZM1041.01 713.083C1041.89 713.083 1042.61 712.344 1042.61 711.456C1042.61 710.56 1041.89 709.829 1041.01 709.829C1040.13 709.829 1039.42 710.56 1039.42 711.456C1039.42 712.344 1040.13 713.083 1041.01 713.083ZM1048.38 713H1050.21L1055.49 702.541V701.022H1047.34V702.508H1053.73V702.624L1048.38 713ZM1057.73 704.458V704.508H1059.37V704.458C1059.37 703.122 1060.25 702.234 1061.58 702.234C1062.9 702.234 1063.76 703.031 1063.76 704.259C1063.76 705.164 1063.38 705.795 1061.82 707.48L1057.81 711.813V713H1065.65V711.489H1060.24V711.348L1062.91 708.501C1064.86 706.459 1065.46 705.43 1065.46 704.168C1065.46 702.151 1063.91 700.773 1061.62 700.773C1059.34 700.773 1057.73 702.3 1057.73 704.458ZM1072.03 706.725C1072.91 706.725 1073.62 705.994 1073.62 705.106C1073.62 704.209 1072.91 703.479 1072.03 703.479C1071.16 703.479 1070.44 704.209 1070.44 705.106C1070.44 705.994 1071.16 706.725 1072.03 706.725ZM1072.03 713.083C1072.91 713.083 1073.62 712.344 1073.62 711.456C1073.62 710.56 1072.91 709.829 1072.03 709.829C1071.16 709.829 1070.44 710.56 1070.44 711.456C1070.44 712.344 1071.16 713.083 1072.03 713.083ZM1077.83 705.87L1081.21 707.688L1077.83 709.497L1078.51 710.726L1081.8 708.684L1081.69 712.543H1083.05L1082.93 708.684L1086.23 710.726L1086.91 709.497L1083.53 707.688L1086.91 705.87L1086.23 704.649L1082.93 706.683L1083.05 702.823H1081.69L1081.8 706.691L1078.51 704.641L1077.83 705.87ZM1091.84 706.467V701.022H1090.12V706.467H1091.84ZM1095.3 706.467V701.022H1093.55V706.467H1095.3Z" fill="#DBD6A7"></path>
<path d="M1042 307L1042 383" stroke="#D6D2CC" stroke-width="4"></path>
<path d="M107.755 121.25C107.762 123.196 106.316 124.121 105.063 124.121C103.683 124.121 102.729 123.121 102.729 121.563V114.545H100.499V121.831C100.499 124.673 102.058 126.149 104.257 126.149C105.98 126.149 107.151 125.239 107.68 124.016H107.8V126H109.992V114.545H107.755V121.25ZM121.362 117.342C120.899 115.56 119.505 114.396 117.029 114.396C114.441 114.396 112.607 115.761 112.607 117.789C112.607 119.415 113.591 120.496 115.739 120.974L117.678 121.399C118.781 121.645 119.296 122.137 119.296 122.853C119.296 123.74 118.349 124.434 116.887 124.434C115.552 124.434 114.695 123.86 114.426 122.734L112.271 123.062C112.644 125.09 114.329 126.231 116.902 126.231C119.669 126.231 121.585 124.762 121.585 122.689C121.585 121.071 120.556 120.071 118.453 119.587L116.634 119.169C115.373 118.871 114.829 118.446 114.836 117.67C114.829 116.79 115.784 116.164 117.051 116.164C118.438 116.164 119.08 116.932 119.341 117.7L121.362 117.342ZM128.764 126.231C131.262 126.231 133.029 125.001 133.536 123.136L131.426 122.756C131.023 123.837 130.054 124.389 128.786 124.389C126.877 124.389 125.594 123.151 125.535 120.944H133.678V120.153C133.678 116.015 131.202 114.396 128.607 114.396C125.415 114.396 123.312 116.827 123.312 120.347C123.312 123.904 125.386 126.231 128.764 126.231ZM125.542 119.273C125.632 117.648 126.81 116.238 128.622 116.238C130.352 116.238 131.486 117.521 131.493 119.273H125.542ZM135.942 126H138.172V119.005C138.172 117.513 139.328 116.432 140.872 116.432C141.304 116.432 141.64 116.522 141.908 116.656L142.624 114.792C142.244 114.538 141.751 114.374 141.125 114.374C139.768 114.374 138.634 115.135 138.217 116.365H138.097V114.545H135.942V126ZM144.07 126H154.122V124.024H147.246V123.912L150.282 120.735C153.078 117.909 153.876 116.559 153.876 114.851C153.876 112.398 151.877 110.518 148.999 110.518C146.143 110.518 144.055 112.368 144.055 115.157H146.255C146.247 113.516 147.306 112.442 148.954 112.442C150.505 112.442 151.684 113.397 151.684 114.918C151.684 116.268 150.878 117.238 149.238 118.975L144.07 124.33V126ZM165.859 111.13C159.885 111.13 156.373 114.777 156.366 120.653C156.373 126.701 159.796 130.154 165.963 130.154C167.686 130.154 169.677 129.684 170.602 129.251L170.08 127.618C169.453 127.842 167.731 128.386 166.06 128.386C161.041 128.386 158.349 125.62 158.349 120.668C158.349 115.925 161.012 112.86 165.784 112.86C170.147 112.86 172.749 115.664 172.742 119.452C172.749 122.689 172.332 124.143 170.975 124.143C170.206 124.143 169.781 123.517 169.781 122.734V115.813H167.947V116.648H167.85C167.626 115.992 166.329 115.403 164.77 115.589C162.615 115.843 160.765 117.625 160.765 120.564C160.765 123.629 162.331 125.679 164.845 125.776C166.545 125.851 167.649 125.06 167.999 124.18H168.089C168.268 125.381 169.565 125.911 170.84 125.866C174.025 125.806 174.629 122.674 174.629 119.527C174.629 115.038 171.556 111.13 165.859 111.13ZM165.307 117.394C167.134 117.394 167.954 118.2 167.962 120.467C167.969 122.793 167.216 123.949 165.277 123.949C163.331 123.949 162.66 122.279 162.652 120.474C162.66 118.759 163.622 117.394 165.307 117.394ZM181.818 126.231C184.317 126.231 186.084 125.001 186.591 123.136L184.481 122.756C184.078 123.837 183.108 124.389 181.841 124.389C179.932 124.389 178.649 123.151 178.589 120.944H186.733V120.153C186.733 116.015 184.257 114.396 181.662 114.396C178.47 114.396 176.367 116.827 176.367 120.347C176.367 123.904 178.44 126.231 181.818 126.231ZM178.597 119.273C178.686 117.648 179.864 116.238 181.677 116.238C183.407 116.238 184.54 117.521 184.548 119.273H178.597ZM190.49 114.545H188.044L191.564 120.273L187.999 126H190.445L193.018 121.719L195.598 126H198.037L194.435 120.273L198.007 114.545H195.569L193.018 119.005L190.49 114.545ZM203.399 126.254C205.294 126.254 206.36 125.292 206.785 124.434H206.875V126H209.052V118.393C209.052 115.06 206.427 114.396 204.608 114.396C202.534 114.396 200.625 115.232 199.88 117.32L201.975 117.797C202.303 116.984 203.138 116.201 204.637 116.201C206.077 116.201 206.815 116.954 206.815 118.252V118.304C206.815 119.117 205.98 119.102 203.921 119.341C201.751 119.594 199.529 120.161 199.529 122.763C199.529 125.016 201.222 126.254 203.399 126.254ZM203.884 124.464C202.624 124.464 201.714 123.897 201.714 122.793C201.714 121.6 202.773 121.175 204.063 121.004C204.787 120.907 206.502 120.713 206.822 120.392V121.869C206.822 123.226 205.741 124.464 203.884 124.464ZM211.812 126H214.042V118.938C214.042 117.394 215.123 116.32 216.391 116.32C217.629 116.32 218.486 117.141 218.486 118.386V126H220.709V118.699C220.709 117.32 221.551 116.32 223.006 116.32C224.184 116.32 225.153 116.977 225.153 118.528V126H227.383V118.319C227.383 115.701 225.921 114.396 223.848 114.396C222.2 114.396 220.962 115.187 220.41 116.41H220.291C219.791 115.157 218.74 114.396 217.211 114.396C215.697 114.396 214.571 115.15 214.094 116.41H213.952V114.545H211.812V126ZM230.162 130.295H232.391V124.218H232.526C232.928 124.949 233.749 126.224 235.837 126.224C238.611 126.224 240.624 124.001 240.624 120.295C240.624 116.581 238.581 114.396 235.814 114.396C233.689 114.396 232.921 115.694 232.526 116.402H232.339V114.545H230.162V130.295ZM232.347 120.273C232.347 117.879 233.391 116.29 235.337 116.29C237.358 116.29 238.372 117.998 238.372 120.273C238.372 122.57 237.328 124.322 235.337 124.322C233.421 124.322 232.347 122.681 232.347 120.273ZM245.142 110.727H242.913V126H245.142V110.727ZM252.869 126.231C255.367 126.231 257.134 125.001 257.642 123.136L255.531 122.756C255.128 123.837 254.159 124.389 252.891 124.389C250.982 124.389 249.699 123.151 249.64 120.944H257.783V120.153C257.783 116.015 255.307 114.396 252.712 114.396C249.52 114.396 247.417 116.827 247.417 120.347C247.417 123.904 249.491 126.231 252.869 126.231ZM249.647 119.273C249.737 117.648 250.915 116.238 252.727 116.238C254.457 116.238 255.591 117.521 255.598 119.273H249.647ZM261.516 126.142C262.329 126.142 263.008 125.478 263.008 124.65C263.008 123.837 262.329 123.166 261.516 123.166C260.696 123.166 260.025 123.837 260.025 124.65C260.025 125.478 260.696 126.142 261.516 126.142ZM270.609 126.231C273.316 126.231 275.069 124.605 275.315 122.376H273.145C272.862 123.614 271.9 124.344 270.624 124.344C268.738 124.344 267.522 122.771 267.522 120.273C267.522 117.819 268.76 116.276 270.624 116.276C272.041 116.276 272.906 117.17 273.145 118.244H275.315C275.076 115.933 273.19 114.396 270.587 114.396C267.358 114.396 265.27 116.827 265.27 120.325C265.27 123.778 267.283 126.231 270.609 126.231ZM282.314 126.231C285.544 126.231 287.654 123.867 287.654 120.325C287.654 116.76 285.544 114.396 282.314 114.396C279.085 114.396 276.975 116.76 276.975 120.325C276.975 123.867 279.085 126.231 282.314 126.231ZM282.322 124.359C280.212 124.359 279.227 122.517 279.227 120.317C279.227 118.125 280.212 116.261 282.322 116.261C284.417 116.261 285.402 118.125 285.402 120.317C285.402 122.517 284.417 124.359 282.322 124.359ZM289.933 126H292.163V118.938C292.163 117.394 293.244 116.32 294.512 116.32C295.75 116.32 296.607 117.141 296.607 118.386V126H298.83V118.699C298.83 117.32 299.672 116.32 301.126 116.32C302.305 116.32 303.274 116.977 303.274 118.528V126H305.504V118.319C305.504 115.701 304.042 114.396 301.969 114.396C300.321 114.396 299.083 115.187 298.531 116.41H298.412C297.912 115.157 296.861 114.396 295.332 114.396C293.818 114.396 292.692 115.15 292.215 116.41H292.073V114.545H289.933V126Z" fill="#242424"></path>
<path d="M105.838 139.727H103.691C103.609 140.145 102.445 142.076 100.216 142.076V143.971C101.946 143.971 103.146 143.284 103.4 142.837H103.527V155H105.838V139.727ZM115.071 155.254C118.599 155.254 120.664 152.375 120.664 147.371C120.664 142.404 118.569 139.518 115.071 139.518C111.566 139.518 109.478 142.397 109.471 147.371C109.471 152.368 111.537 155.246 115.071 155.254ZM115.071 153.262C113.006 153.262 111.76 151.189 111.76 147.371C111.768 143.568 113.013 141.472 115.071 141.472C117.122 141.472 118.375 143.568 118.375 147.371C118.375 151.189 117.13 153.262 115.071 153.262ZM128.417 155.254C131.944 155.254 134.01 152.375 134.01 147.371C134.01 142.404 131.915 139.518 128.417 139.518C124.912 139.518 122.824 142.397 122.817 147.371C122.817 152.368 124.882 155.246 128.417 155.254ZM128.417 153.262C126.351 153.262 125.106 151.189 125.106 147.371C125.113 143.568 126.359 141.472 128.417 141.472C130.468 141.472 131.721 143.568 131.721 147.371C131.721 151.189 130.475 153.262 128.417 153.262ZM137.944 155.142C138.757 155.142 139.436 154.478 139.436 153.65C139.436 152.837 138.757 152.166 137.944 152.166C137.124 152.166 136.453 152.837 136.453 153.65C136.453 154.478 137.124 155.142 137.944 155.142ZM142.697 155H145.106L151.751 141.771V139.727H141.653V141.703H149.364V141.815L142.697 155ZM159.503 139.727H157.356C157.274 140.145 156.11 142.076 153.88 142.076V143.971C155.611 143.971 156.811 143.284 157.065 142.837H157.191V155H159.503V139.727ZM164.918 155.142C165.731 155.142 166.409 154.478 166.409 153.65C166.409 152.837 165.731 152.166 164.918 152.166C164.098 152.166 163.427 152.837 163.427 153.65C163.427 154.478 164.098 155.142 164.918 155.142ZM172.865 139.727H170.717C170.635 140.145 169.471 142.076 167.242 142.076V143.971C168.972 143.971 170.172 143.284 170.426 142.837H170.553V155H172.865V139.727ZM177.295 155H179.704L186.348 141.771V139.727H176.251V141.703H183.962V141.815L177.295 155ZM193.735 155.209C196.927 155.239 199.045 152.942 199.038 150.011C199.045 147.088 196.92 144.992 194.272 144.992C192.661 144.992 191.267 145.768 190.484 147.058H190.372C190.38 143.553 191.692 141.502 193.929 141.502C195.398 141.502 196.323 142.39 196.636 143.695H198.911C198.56 141.241 196.659 139.481 193.929 139.481C190.38 139.481 188.165 142.531 188.165 147.878C188.165 153.501 191.021 155.186 193.735 155.209ZM193.728 153.27C191.953 153.27 190.655 151.778 190.655 150.063C190.663 148.355 192.02 146.864 193.78 146.864C195.525 146.864 196.808 148.273 196.8 150.041C196.808 151.846 195.473 153.27 193.728 153.27ZM202.325 155.142C203.138 155.142 203.817 154.478 203.817 153.65C203.817 152.837 203.138 152.166 202.325 152.166C201.505 152.166 200.834 152.837 200.834 153.65C200.834 154.478 201.505 155.142 202.325 155.142ZM210.272 139.727H208.124C208.042 140.145 206.878 142.076 204.649 142.076V143.971C206.379 143.971 207.579 143.284 207.833 142.837H207.96V155H210.272V139.727ZM219.557 139.727H217.409C217.327 140.145 216.164 142.076 213.934 142.076V143.971C215.664 143.971 216.865 143.284 217.118 142.837H217.245V155H219.557V139.727ZM228.514 155.209C231.586 155.209 233.779 153.039 233.771 150.063C233.779 147.11 231.72 144.962 228.939 144.962C227.805 144.962 226.754 145.395 226.157 145.977H226.068L226.552 141.703H233.033V139.727H224.636L223.778 147.423L225.889 147.737C226.463 147.222 227.492 146.871 228.417 146.871C230.229 146.886 231.541 148.244 231.541 150.108C231.541 151.942 230.266 153.27 228.514 153.27C227.037 153.27 225.866 152.33 225.747 151.018H223.51C223.599 153.449 225.71 155.209 228.514 155.209Z" fill="#9F9995"></path>
<path d="M498.755 575.25C498.762 577.196 497.316 578.121 496.063 578.121C494.683 578.121 493.729 577.121 493.729 575.563V568.545H491.499V575.831C491.499 578.673 493.058 580.149 495.257 580.149C496.98 580.149 498.151 579.239 498.68 578.016H498.8V580H500.992V568.545H498.755V575.25ZM512.362 571.342C511.899 569.56 510.505 568.396 508.029 568.396C505.441 568.396 503.607 569.761 503.607 571.789C503.607 573.415 504.591 574.496 506.739 574.974L508.678 575.399C509.781 575.645 510.296 576.137 510.296 576.853C510.296 577.74 509.349 578.434 507.887 578.434C506.552 578.434 505.695 577.86 505.426 576.734L503.271 577.062C503.644 579.09 505.329 580.231 507.902 580.231C510.669 580.231 512.585 578.762 512.585 576.689C512.585 575.071 511.556 574.071 509.453 573.587L507.634 573.169C506.373 572.871 505.829 572.446 505.836 571.67C505.829 570.79 506.784 570.164 508.051 570.164C509.438 570.164 510.08 570.932 510.341 571.7L512.362 571.342ZM519.764 580.231C522.262 580.231 524.029 579.001 524.536 577.136L522.426 576.756C522.023 577.837 521.054 578.389 519.786 578.389C517.877 578.389 516.594 577.151 516.535 574.944H524.678V574.153C524.678 570.015 522.202 568.396 519.607 568.396C516.415 568.396 514.312 570.827 514.312 574.347C514.312 577.904 516.386 580.231 519.764 580.231ZM516.542 573.273C516.632 571.648 517.81 570.238 519.622 570.238C521.352 570.238 522.486 571.521 522.493 573.273H516.542ZM526.942 580H529.172V573.005C529.172 571.506 530.328 570.425 531.909 570.425C532.371 570.425 532.893 570.507 533.072 570.559V568.426C532.848 568.396 532.408 568.374 532.125 568.374C530.783 568.374 529.634 569.135 529.217 570.365H529.097V568.545H526.942V580ZM540.131 564.727H537.984C537.901 565.145 536.738 567.076 534.508 567.076V568.971C536.238 568.971 537.439 568.284 537.693 567.837H537.819V580H540.131V564.727ZM553.167 565.13C547.194 565.13 543.682 568.777 543.674 574.653C543.682 580.701 547.105 584.154 553.272 584.154C554.994 584.154 556.986 583.684 557.91 583.251L557.388 581.618C556.762 581.842 555.039 582.386 553.369 582.386C548.35 582.386 545.658 579.62 545.658 574.668C545.658 569.925 548.32 566.86 553.093 566.86C557.455 566.86 560.058 569.664 560.051 573.452C560.058 576.689 559.64 578.143 558.283 578.143C557.515 578.143 557.09 577.517 557.09 576.734V569.813H555.255V570.648H555.159C554.935 569.992 553.637 569.403 552.079 569.589C549.923 569.843 548.074 571.625 548.074 574.564C548.074 577.629 549.64 579.679 552.153 579.776C553.853 579.851 554.957 579.06 555.308 578.18H555.397C555.576 579.381 556.874 579.911 558.149 579.866C561.333 579.806 561.937 576.674 561.937 573.527C561.937 569.038 558.865 565.13 553.167 565.13ZM552.616 571.394C554.443 571.394 555.263 572.2 555.27 574.467C555.278 576.793 554.525 577.949 552.586 577.949C550.639 577.949 549.968 576.279 549.961 574.474C549.968 572.759 550.93 571.394 552.616 571.394ZM569.127 580.231C571.625 580.231 573.393 579.001 573.9 577.136L571.789 576.756C571.386 577.837 570.417 578.389 569.149 578.389C567.24 578.389 565.958 577.151 565.898 574.944H574.041V574.153C574.041 570.015 571.565 568.396 568.97 568.396C565.779 568.396 563.676 570.827 563.676 574.347C563.676 577.904 565.749 580.231 569.127 580.231ZM565.905 573.273C565.995 571.648 567.173 570.238 568.985 570.238C570.715 570.238 571.849 571.521 571.856 573.273H565.905ZM577.799 568.545H575.353L578.873 574.273L575.308 580H577.754L580.327 575.719L582.907 580H585.346L581.744 574.273L585.316 568.545H582.877L580.327 573.005L577.799 568.545ZM590.708 580.254C592.602 580.254 593.669 579.292 594.094 578.434H594.183V580H596.361V572.393C596.361 569.06 593.736 568.396 591.916 568.396C589.843 568.396 587.934 569.232 587.188 571.32L589.284 571.797C589.612 570.984 590.447 570.201 591.946 570.201C593.385 570.201 594.124 570.954 594.124 572.252V572.304C594.124 573.117 593.288 573.102 591.23 573.341C589.06 573.594 586.838 574.161 586.838 576.763C586.838 579.016 588.53 580.254 590.708 580.254ZM591.193 578.464C589.932 578.464 589.023 577.897 589.023 576.793C589.023 575.6 590.082 575.175 591.372 575.004C592.095 574.907 593.81 574.713 594.131 574.392V575.869C594.131 577.226 593.05 578.464 591.193 578.464ZM599.121 580H601.35V572.938C601.35 571.394 602.432 570.32 603.699 570.32C604.937 570.32 605.795 571.141 605.795 572.386V580H608.017V572.699C608.017 571.32 608.86 570.32 610.314 570.32C611.492 570.32 612.462 570.977 612.462 572.528V580H614.692V572.319C614.692 569.701 613.23 568.396 611.157 568.396C609.509 568.396 608.271 569.187 607.719 570.41H607.6C607.1 569.157 606.049 568.396 604.52 568.396C603.006 568.396 601.88 569.15 601.403 570.41H601.261V568.545H599.121V580ZM617.47 584.295H619.7V578.218H619.834C620.237 578.949 621.057 580.224 623.145 580.224C625.919 580.224 627.933 578.001 627.933 574.295C627.933 570.581 625.89 568.396 623.123 568.396C620.998 568.396 620.229 569.694 619.834 570.402H619.648V568.545H617.47V584.295ZM619.655 574.273C619.655 571.879 620.699 570.29 622.646 570.29C624.667 570.29 625.681 571.998 625.681 574.273C625.681 576.57 624.637 578.322 622.646 578.322C620.729 578.322 619.655 576.681 619.655 574.273ZM632.451 564.727H630.221V580H632.451V564.727ZM640.177 580.231C642.676 580.231 644.443 579.001 644.95 577.136L642.84 576.756C642.437 577.837 641.468 578.389 640.2 578.389C638.291 578.389 637.008 577.151 636.948 574.944H645.092V574.153C645.092 570.015 642.616 568.396 640.021 568.396C636.829 568.396 634.726 570.827 634.726 574.347C634.726 577.904 636.799 580.231 640.177 580.231ZM636.956 573.273C637.045 571.648 638.224 570.238 640.036 570.238C641.766 570.238 642.899 571.521 642.907 573.273H636.956ZM648.825 580.142C649.638 580.142 650.316 579.478 650.316 578.65C650.316 577.837 649.638 577.166 648.825 577.166C648.005 577.166 647.333 577.837 647.333 578.65C647.333 579.478 648.005 580.142 648.825 580.142ZM657.918 580.231C660.625 580.231 662.378 578.605 662.624 576.376H660.454C660.17 577.614 659.208 578.344 657.933 578.344C656.046 578.344 654.831 576.771 654.831 574.273C654.831 571.819 656.069 570.276 657.933 570.276C659.35 570.276 660.215 571.17 660.454 572.244H662.624C662.385 569.933 660.498 568.396 657.896 568.396C654.667 568.396 652.579 570.827 652.579 574.325C652.579 577.778 654.592 580.231 657.918 580.231ZM669.623 580.231C672.852 580.231 674.963 577.867 674.963 574.325C674.963 570.76 672.852 568.396 669.623 568.396C666.394 568.396 664.284 570.76 664.284 574.325C664.284 577.867 666.394 580.231 669.623 580.231ZM669.631 578.359C667.52 578.359 666.536 576.517 666.536 574.317C666.536 572.125 667.52 570.261 669.631 570.261C671.726 570.261 672.71 572.125 672.71 574.317C672.71 576.517 671.726 578.359 669.631 578.359ZM677.241 580H679.471V572.938C679.471 571.394 680.553 570.32 681.82 570.32C683.058 570.32 683.916 571.141 683.916 572.386V580H686.138V572.699C686.138 571.32 686.981 570.32 688.435 570.32C689.613 570.32 690.583 570.977 690.583 572.528V580H692.812V572.319C692.812 569.701 691.351 568.396 689.278 568.396C687.63 568.396 686.392 569.187 685.84 570.41H685.721C685.221 569.157 684.169 568.396 682.641 568.396C681.127 568.396 680.001 569.15 679.523 570.41H679.382V568.545H677.241V580Z" fill="#242424"></path>
<path d="M496.838 593.727H494.691C494.609 594.145 493.445 596.076 491.216 596.076V597.971C492.946 597.971 494.146 597.284 494.4 596.837H494.527V609H496.838V593.727ZM506.071 609.254C509.599 609.254 511.664 606.375 511.664 601.371C511.664 596.404 509.569 593.518 506.071 593.518C502.566 593.518 500.478 596.397 500.471 601.371C500.471 606.368 502.537 609.246 506.071 609.254ZM506.071 607.262C504.006 607.262 502.76 605.189 502.76 601.371C502.768 597.568 504.013 595.472 506.071 595.472C508.122 595.472 509.375 597.568 509.375 601.371C509.375 605.189 508.13 607.262 506.071 607.262ZM519.417 609.254C522.944 609.254 525.01 606.375 525.01 601.371C525.01 596.404 522.915 593.518 519.417 593.518C515.912 593.518 513.824 596.397 513.817 601.371C513.817 606.368 515.882 609.246 519.417 609.254ZM519.417 607.262C517.351 607.262 516.106 605.189 516.106 601.371C516.113 597.568 517.359 595.472 519.417 595.472C521.468 595.472 522.721 597.568 522.721 601.371C522.721 605.189 521.475 607.262 519.417 607.262ZM528.944 609.142C529.757 609.142 530.436 608.478 530.436 607.65C530.436 606.837 529.757 606.166 528.944 606.166C528.124 606.166 527.453 606.837 527.453 607.65C527.453 608.478 528.124 609.142 528.944 609.142ZM536.891 593.727H534.743C534.661 594.145 533.498 596.076 531.268 596.076V597.971C532.998 597.971 534.199 597.284 534.452 596.837H534.579V609H536.891V593.727ZM546.124 609.254C549.651 609.254 551.717 606.375 551.717 601.371C551.717 596.404 549.621 593.518 546.124 593.518C542.619 593.518 540.531 596.397 540.523 601.371C540.523 606.368 542.589 609.246 546.124 609.254ZM546.124 607.262C544.058 607.262 542.813 605.189 542.813 601.371C542.82 597.568 544.066 595.472 546.124 595.472C548.175 595.472 549.428 597.568 549.428 601.371C549.428 605.189 548.182 607.262 546.124 607.262ZM559.194 609.209C562.266 609.209 564.459 607.039 564.451 604.063C564.459 601.11 562.4 598.962 559.619 598.962C558.485 598.962 557.434 599.395 556.837 599.977H556.748L557.232 595.703H563.713V593.727H555.316L554.458 601.423L556.569 601.737C557.143 601.222 558.172 600.871 559.097 600.871C560.909 600.886 562.221 602.244 562.221 604.108C562.221 605.942 560.946 607.27 559.194 607.27C557.717 607.27 556.546 606.33 556.427 605.018H554.19C554.279 607.449 556.39 609.209 559.194 609.209ZM567.746 609.142C568.559 609.142 569.238 608.478 569.238 607.65C569.238 606.837 568.559 606.166 567.746 606.166C566.926 606.166 566.255 606.837 566.255 607.65C566.255 608.478 566.926 609.142 567.746 609.142ZM575.693 593.727H573.545C573.463 594.145 572.299 596.076 570.07 596.076V597.971C571.8 597.971 573 597.284 573.254 596.837H573.381V609H575.693V593.727ZM579.288 606.017H586.529V609H588.729V606.017H590.75V604.063H588.729V593.727H585.888L579.288 604.153V606.017ZM586.544 604.063H581.704V603.944L586.424 596.472H586.544V604.063ZM593.92 609.142C594.733 609.142 595.411 608.478 595.411 607.65C595.411 606.837 594.733 606.166 593.92 606.166C593.099 606.166 592.428 606.837 592.428 607.65C592.428 608.478 593.099 609.142 593.92 609.142ZM598.673 609H601.081L607.726 595.771V593.727H597.629V595.703H605.34V595.815L598.673 609ZM614.983 593.481C611.776 593.459 609.68 595.756 609.68 598.679C609.68 601.602 611.798 603.705 614.446 603.705C616.064 603.705 617.451 602.915 618.234 601.632H618.353C618.346 605.145 617.026 607.195 614.789 607.195C613.327 607.195 612.387 606.3 612.089 604.995H609.815C610.15 607.464 612.059 609.209 614.789 609.209C618.338 609.209 620.553 606.159 620.561 600.812C620.553 595.196 617.705 593.504 614.983 593.481ZM614.99 595.42C616.758 595.42 618.063 596.919 618.063 598.627C618.063 600.335 616.69 601.826 614.945 601.826C613.193 601.826 611.918 600.424 611.918 598.649C611.918 596.844 613.238 595.42 614.99 595.42Z" fill="#9F9995"></path>
<path d="M154.5 665L154.5 308" stroke="#C65835" stroke-width="3"></path>
<path d="M177.5 281L177.5 625" stroke="#C65835" stroke-width="3"></path>
<path d="M496.804 457.61L164.25 265.61M261.732 309.767L247.388 313.61L251.232 327.953M374.315 374.767L359.972 378.61L363.815 392.953" stroke="#D6D2CC" stroke-width="3"></path>
<path d="M177.25 243.093L509.804 435.093M405.502 362.75L409.345 377.093L395.002 380.937M292.918 297.75L296.762 312.093L282.418 315.937" stroke="#D6D2CC" stroke-width="3"></path>
<path d="M528.804 487.61L196.25 679.61M283.232 617.267L279.388 631.61L293.732 635.453M395.815 552.267L391.972 566.61L406.315 570.453" stroke="#D6D2CC" stroke-width="3"></path>
<path d="M183.25 657.093L515.804 465.093M401.002 519.25L415.345 523.093L411.502 537.437M288.418 584.25L302.762 588.093L298.918 602.437" stroke="#D6D2CC" stroke-width="3"></path>
<path d="M107.755 777.25C107.762 779.196 106.316 780.121 105.063 780.121C103.683 780.121 102.729 779.121 102.729 777.563V770.545H100.499V777.831C100.499 780.673 102.058 782.149 104.257 782.149C105.98 782.149 107.151 781.239 107.68 780.016H107.8V782H109.992V770.545H107.755V777.25ZM121.362 773.342C120.899 771.56 119.505 770.396 117.029 770.396C114.441 770.396 112.607 771.761 112.607 773.789C112.607 775.415 113.591 776.496 115.739 776.974L117.678 777.399C118.781 777.645 119.296 778.137 119.296 778.853C119.296 779.74 118.349 780.434 116.887 780.434C115.552 780.434 114.695 779.86 114.426 778.734L112.271 779.062C112.644 781.09 114.329 782.231 116.902 782.231C119.669 782.231 121.585 780.762 121.585 778.689C121.585 777.071 120.556 776.071 118.453 775.587L116.634 775.169C115.373 774.871 114.829 774.446 114.836 773.67C114.829 772.79 115.784 772.164 117.051 772.164C118.438 772.164 119.08 772.932 119.341 773.7L121.362 773.342ZM128.764 782.231C131.262 782.231 133.029 781.001 133.536 779.136L131.426 778.756C131.023 779.837 130.054 780.389 128.786 780.389C126.877 780.389 125.594 779.151 125.535 776.944H133.678V776.153C133.678 772.015 131.202 770.396 128.607 770.396C125.415 770.396 123.312 772.827 123.312 776.347C123.312 779.904 125.386 782.231 128.764 782.231ZM125.542 775.273C125.632 773.648 126.81 772.238 128.622 772.238C130.352 772.238 131.486 773.521 131.493 775.273H125.542ZM135.942 782H138.172V775.005C138.172 773.513 139.328 772.432 140.872 772.432C141.304 772.432 141.64 772.522 141.908 772.656L142.624 770.792C142.244 770.538 141.751 770.374 141.125 770.374C139.768 770.374 138.634 771.135 138.217 772.365H138.097V770.545H135.942V782ZM149.387 782.209C152.504 782.209 154.793 780.344 154.786 777.809C154.793 775.877 153.622 774.49 151.594 774.177V774.058C153.19 773.648 154.226 772.395 154.219 770.68C154.226 768.435 152.385 766.518 149.446 766.518C146.642 766.518 144.39 768.211 144.316 770.695H146.545C146.598 769.293 147.918 768.442 149.416 768.442C150.975 768.442 151.997 769.39 151.989 770.799C151.997 772.276 150.811 773.245 149.118 773.245H147.828V775.124H149.118C151.236 775.124 152.459 776.198 152.459 777.734C152.459 779.218 151.169 780.225 149.372 780.225C147.716 780.225 146.426 779.375 146.337 778.018H143.995C144.092 780.509 146.299 782.209 149.387 782.209ZM166.515 767.13C160.542 767.13 157.029 770.777 157.022 776.653C157.029 782.701 160.452 786.154 166.619 786.154C168.342 786.154 170.333 785.684 171.258 785.251L170.736 783.618C170.11 783.842 168.387 784.386 166.716 784.386C161.698 784.386 159.005 781.62 159.005 776.668C159.005 771.925 161.668 768.86 166.441 768.86C170.803 768.86 173.406 771.664 173.398 775.452C173.406 778.689 172.988 780.143 171.631 780.143C170.863 780.143 170.438 779.517 170.438 778.734V771.813H168.603V772.648H168.506C168.282 771.992 166.985 771.403 165.426 771.589C163.271 771.843 161.422 773.625 161.422 776.564C161.422 779.629 162.988 781.679 165.501 781.776C167.201 781.851 168.305 781.06 168.655 780.18H168.745C168.924 781.381 170.221 781.911 171.497 781.866C174.681 781.806 175.285 778.674 175.285 775.527C175.285 771.038 172.213 767.13 166.515 767.13ZM165.963 773.394C167.79 773.394 168.611 774.2 168.618 776.467C168.626 778.793 167.872 779.949 165.933 779.949C163.987 779.949 163.316 778.279 163.308 776.474C163.316 774.759 164.278 773.394 165.963 773.394ZM182.475 782.231C184.973 782.231 186.74 781.001 187.247 779.136L185.137 778.756C184.734 779.837 183.765 780.389 182.497 780.389C180.588 780.389 179.305 779.151 179.246 776.944H187.389V776.153C187.389 772.015 184.913 770.396 182.318 770.396C179.126 770.396 177.023 772.827 177.023 776.347C177.023 779.904 179.096 782.231 182.475 782.231ZM179.253 775.273C179.342 773.648 180.521 772.238 182.333 772.238C184.063 772.238 185.196 773.521 185.204 775.273H179.253ZM191.146 770.545H188.7L192.22 776.273L188.656 782H191.102L193.674 777.719L196.255 782H198.693L195.091 776.273L198.663 770.545H196.225L193.674 775.005L191.146 770.545ZM204.056 782.254C205.95 782.254 207.016 781.292 207.441 780.434H207.531V782H209.708V774.393C209.708 771.06 207.083 770.396 205.264 770.396C203.191 770.396 201.282 771.232 200.536 773.32L202.631 773.797C202.959 772.984 203.795 772.201 205.294 772.201C206.733 772.201 207.471 772.954 207.471 774.252V774.304C207.471 775.117 206.636 775.102 204.578 775.341C202.408 775.594 200.185 776.161 200.185 778.763C200.185 781.016 201.878 782.254 204.056 782.254ZM204.54 780.464C203.28 780.464 202.37 779.897 202.37 778.793C202.37 777.6 203.429 777.175 204.719 777.004C205.443 776.907 207.158 776.713 207.479 776.392V777.869C207.479 779.226 206.397 780.464 204.54 780.464ZM212.468 782H214.698V774.938C214.698 773.394 215.779 772.32 217.047 772.32C218.285 772.32 219.143 773.141 219.143 774.386V782H221.365V774.699C221.365 773.32 222.208 772.32 223.662 772.32C224.84 772.32 225.81 772.977 225.81 774.528V782H228.039V774.319C228.039 771.701 226.578 770.396 224.505 770.396C222.856 770.396 221.619 771.187 221.067 772.41H220.947C220.448 771.157 219.396 770.396 217.867 770.396C216.354 770.396 215.228 771.15 214.75 772.41H214.609V770.545H212.468V782ZM230.818 786.295H233.048V780.218H233.182C233.585 780.949 234.405 782.224 236.493 782.224C239.267 782.224 241.281 780.001 241.281 776.295C241.281 772.581 239.237 770.396 236.471 770.396C234.345 770.396 233.577 771.694 233.182 772.402H232.995V770.545H230.818V786.295ZM233.003 776.273C233.003 773.879 234.047 772.29 235.993 772.29C238.014 772.29 239.028 773.998 239.028 776.273C239.028 778.57 237.984 780.322 235.993 780.322C234.077 780.322 233.003 778.681 233.003 776.273ZM245.799 766.727H243.569V782H245.799V766.727ZM253.525 782.231C256.023 782.231 257.791 781.001 258.298 779.136L256.187 778.756C255.785 779.837 254.815 780.389 253.547 780.389C251.638 780.389 250.356 779.151 250.296 776.944H258.44V776.153C258.44 772.015 255.964 770.396 253.368 770.396C250.177 770.396 248.074 772.827 248.074 776.347C248.074 779.904 250.147 782.231 253.525 782.231ZM250.304 775.273C250.393 773.648 251.571 772.238 253.383 772.238C255.114 772.238 256.247 773.521 256.254 775.273H250.304ZM262.173 782.142C262.985 782.142 263.664 781.478 263.664 780.65C263.664 779.837 262.985 779.166 262.173 779.166C261.352 779.166 260.681 779.837 260.681 780.65C260.681 781.478 261.352 782.142 262.173 782.142ZM271.266 782.231C273.973 782.231 275.725 780.605 275.971 778.376H273.801C273.518 779.614 272.556 780.344 271.281 780.344C269.394 780.344 268.178 778.771 268.178 776.273C268.178 773.819 269.416 772.276 271.281 772.276C272.698 772.276 273.563 773.17 273.801 774.244H275.971C275.733 771.933 273.846 770.396 271.243 770.396C268.014 770.396 265.926 772.827 265.926 776.325C265.926 779.778 267.94 782.231 271.266 782.231ZM282.971 782.231C286.2 782.231 288.31 779.867 288.31 776.325C288.31 772.76 286.2 770.396 282.971 770.396C279.742 770.396 277.631 772.76 277.631 776.325C277.631 779.867 279.742 782.231 282.971 782.231ZM282.978 780.359C280.868 780.359 279.883 778.517 279.883 776.317C279.883 774.125 280.868 772.261 282.978 772.261C285.074 772.261 286.058 774.125 286.058 776.317C286.058 778.517 285.074 780.359 282.978 780.359ZM290.589 782H292.819V774.938C292.819 773.394 293.9 772.32 295.168 772.32C296.406 772.32 297.263 773.141 297.263 774.386V782H299.486V774.699C299.486 773.32 300.328 772.32 301.783 772.32C302.961 772.32 303.93 772.977 303.93 774.528V782H306.16V774.319C306.16 771.701 304.699 770.396 302.625 770.396C300.977 770.396 299.739 771.187 299.187 772.41H299.068C298.569 771.157 297.517 770.396 295.988 770.396C294.474 770.396 293.348 771.15 292.871 772.41H292.729V770.545H290.589V782Z" fill="#242424"></path>
<path d="M105.838 795.727H103.691C103.609 796.145 102.445 798.076 100.216 798.076V799.971C101.946 799.971 103.146 799.284 103.4 798.837H103.527V811H105.838V795.727ZM115.071 811.254C118.599 811.254 120.664 808.375 120.664 803.371C120.664 798.404 118.569 795.518 115.071 795.518C111.566 795.518 109.478 798.397 109.471 803.371C109.471 808.368 111.537 811.246 115.071 811.254ZM115.071 809.262C113.006 809.262 111.76 807.189 111.76 803.371C111.768 799.568 113.013 797.472 115.071 797.472C117.122 797.472 118.375 799.568 118.375 803.371C118.375 807.189 117.13 809.262 115.071 809.262ZM128.417 811.254C131.944 811.254 134.01 808.375 134.01 803.371C134.01 798.404 131.915 795.518 128.417 795.518C124.912 795.518 122.824 798.397 122.817 803.371C122.817 808.368 124.882 811.246 128.417 811.254ZM128.417 809.262C126.351 809.262 125.106 807.189 125.106 803.371C125.113 799.568 126.359 797.472 128.417 797.472C130.468 797.472 131.721 799.568 131.721 803.371C131.721 807.189 130.475 809.262 128.417 809.262ZM137.944 811.142C138.757 811.142 139.436 810.478 139.436 809.65C139.436 808.837 138.757 808.166 137.944 808.166C137.124 808.166 136.453 808.837 136.453 809.65C136.453 810.478 137.124 811.142 137.944 811.142ZM146.626 811.209C149.802 811.209 152.047 809.404 152.062 806.928C152.047 805.004 150.697 803.386 148.99 803.08V802.991C150.474 802.633 151.48 801.238 151.495 799.59C151.48 797.256 149.422 795.518 146.626 795.518C143.799 795.518 141.741 797.256 141.756 799.59C141.741 801.231 142.748 802.633 144.262 802.991V803.08C142.524 803.386 141.174 805.004 141.189 806.928C141.174 809.404 143.419 811.209 146.626 811.209ZM146.626 809.322C144.716 809.322 143.508 808.308 143.523 806.779C143.508 805.191 144.821 804.057 146.626 804.057C148.4 804.057 149.713 805.191 149.728 806.779C149.713 808.308 148.512 809.322 146.626 809.322ZM146.626 802.215C145.082 802.215 143.986 801.238 144.001 799.784C143.986 798.352 145.045 797.405 146.626 797.405C148.177 797.405 149.236 798.352 149.251 799.784C149.236 801.238 148.147 802.215 146.626 802.215ZM159.893 795.727H157.745C157.663 796.145 156.5 798.076 154.27 798.076V799.971C156 799.971 157.201 799.284 157.454 798.837H157.581V811H159.893V795.727ZM165.308 811.142C166.121 811.142 166.799 810.478 166.799 809.65C166.799 808.837 166.121 808.166 165.308 808.166C164.487 808.166 163.816 808.837 163.816 809.65C163.816 810.478 164.487 811.142 165.308 811.142ZM173.254 795.727H171.106C171.024 796.145 169.861 798.076 167.631 798.076V799.971C169.361 799.971 170.562 799.284 170.816 798.837H170.942V811H173.254V795.727ZM182.248 795.481C179.042 795.459 176.946 797.756 176.946 800.679C176.946 803.602 179.064 805.705 181.712 805.705C183.33 805.705 184.717 804.915 185.5 803.632H185.619C185.612 807.145 184.292 809.195 182.055 809.195C180.593 809.195 179.653 808.3 179.355 806.995H177.08C177.416 809.464 179.325 811.209 182.055 811.209C185.604 811.209 187.819 808.159 187.827 802.812C187.819 797.196 184.97 795.504 182.248 795.481ZM182.256 797.42C184.023 797.42 185.328 798.919 185.328 800.627C185.328 802.335 183.956 803.826 182.211 803.826C180.459 803.826 179.183 802.424 179.183 800.649C179.183 798.844 180.503 797.42 182.256 797.42ZM195.352 811.209C198.424 811.209 200.617 809.039 200.609 806.063C200.617 803.11 198.558 800.962 195.777 800.962C194.643 800.962 193.592 801.395 192.995 801.977H192.906L193.39 797.703H199.871V795.727H191.474L190.616 803.423L192.727 803.737C193.301 803.222 194.33 802.871 195.255 802.871C197.067 802.886 198.379 804.244 198.379 806.108C198.379 807.942 197.104 809.27 195.352 809.27C193.875 809.27 192.704 808.33 192.585 807.018H190.348C190.437 809.449 192.548 811.209 195.352 811.209ZM203.904 811.142C204.717 811.142 205.396 810.478 205.396 809.65C205.396 808.837 204.717 808.166 203.904 808.166C203.084 808.166 202.413 808.837 202.413 809.65C202.413 810.478 203.084 811.142 203.904 811.142ZM208.657 811H211.066L217.71 797.771V795.727H207.613V797.703H215.324V797.815L208.657 811ZM220.094 811H230.146V809.024H223.27V808.912L226.306 805.735C229.102 802.909 229.9 801.559 229.9 799.851C229.9 797.398 227.902 795.518 225.023 795.518C222.167 795.518 220.079 797.368 220.079 800.157H222.279C222.271 798.516 223.33 797.442 224.978 797.442C226.529 797.442 227.708 798.397 227.708 799.918C227.708 801.268 226.902 802.238 225.262 803.975L220.094 809.33V811Z" fill="#9F9995"></path>
<path d="M851 115H759.5H439C427.954 115 419 123.954 419 135V222C419 233.046 410.046 242 399 242H212.5M212.5 242L223 231.5M212.5 242L223 252.5" stroke="#4D78C8" stroke-width="3"></path>
<path d="M214.5 694.5H729.5C740.546 694.5 749.5 685.546 749.5 674.5V135C749.5 123.954 758.454 115 769.5 115H850.5M214.5 694.5L224.5 684.5M214.5 694.5L224.5 704.5" stroke="#4D78C8" stroke-width="3"></path>
<path d="M538 414V135C538 123.954 546.954 115 558 115H852M538 414L524.5 400.5M538 414L551.5 400.5" stroke="#4D78C8" stroke-width="3"></path>
<rect x="817" y="80" width="450" height="217" rx="22" fill="#343433" stroke="#FAF9F8" stroke-width="12"></rect>
<circle cx="851" cy="114" r="12" fill="#FAF9F8"></circle>
<path d="M841.233 219.281H847.577V237H850.639V219.281H856.993V216.636H841.233V219.281ZM862.323 237.338C864.849 237.338 866.271 236.055 866.838 234.912H866.957V237H869.86V226.858C869.86 222.413 866.36 221.528 863.934 221.528C861.17 221.528 858.624 222.642 857.63 225.426L860.424 226.062C860.862 224.979 861.975 223.935 863.974 223.935C865.893 223.935 866.877 224.939 866.877 226.669V226.739C866.877 227.822 865.764 227.803 863.019 228.121C860.126 228.459 857.163 229.214 857.163 232.685C857.163 235.688 859.42 237.338 862.323 237.338ZM862.97 234.952C861.289 234.952 860.076 234.196 860.076 232.724C860.076 231.134 861.488 230.567 863.208 230.338C864.173 230.209 866.46 229.95 866.887 229.523V231.491C866.887 233.301 865.445 234.952 862.97 234.952ZM873.54 237H876.513V221.727H873.54V237ZM875.042 219.371C876.066 219.371 876.921 218.575 876.921 217.601C876.921 216.626 876.066 215.821 875.042 215.821C874.007 215.821 873.162 216.626 873.162 217.601C873.162 218.575 874.007 219.371 875.042 219.371ZM883.206 216.636H880.233V237H883.206V216.636ZM898.37 225.456C897.754 223.08 895.894 221.528 892.593 221.528C889.143 221.528 886.697 223.348 886.697 226.053C886.697 228.22 888.009 229.662 890.873 230.298L893.458 230.865C894.93 231.193 895.616 231.849 895.616 232.804C895.616 233.987 894.353 234.912 892.404 234.912C890.624 234.912 889.481 234.146 889.123 232.645L886.249 233.082C886.746 235.787 888.994 237.308 892.424 237.308C896.113 237.308 898.668 235.349 898.668 232.585C898.668 230.428 897.296 229.095 894.492 228.449L892.066 227.892C890.386 227.494 889.66 226.928 889.67 225.893C889.66 224.72 890.933 223.885 892.623 223.885C894.472 223.885 895.327 224.909 895.675 225.933L898.37 225.456ZM908.09 237.308C911.7 237.308 914.036 235.141 914.365 232.168H911.471C911.093 233.818 909.811 234.793 908.11 234.793C905.595 234.793 903.974 232.695 903.974 229.364C903.974 226.092 905.625 224.034 908.11 224.034C910 224.034 911.153 225.227 911.471 226.659H914.365C914.046 223.577 911.531 221.528 908.061 221.528C903.755 221.528 900.971 224.77 900.971 229.433C900.971 234.037 903.656 237.308 908.09 237.308ZM921.708 237.338C924.234 237.338 925.656 236.055 926.223 234.912H926.342V237H929.245V226.858C929.245 222.413 925.745 221.528 923.319 221.528C920.555 221.528 918.01 222.642 917.015 225.426L919.809 226.062C920.247 224.979 921.36 223.935 923.359 223.935C925.278 223.935 926.262 224.939 926.262 226.669V226.739C926.262 227.822 925.149 227.803 922.405 228.121C919.511 228.459 916.548 229.214 916.548 232.685C916.548 235.688 918.805 237.338 921.708 237.338ZM922.355 234.952C920.674 234.952 919.461 234.196 919.461 232.724C919.461 231.134 920.873 230.567 922.593 230.338C923.558 230.209 925.845 229.95 926.272 229.523V231.491C926.272 233.301 924.831 234.952 922.355 234.952ZM935.898 216.636H932.925V237H935.898V216.636ZM946.2 237.308C949.531 237.308 951.888 235.668 952.564 233.182L949.75 232.675C949.213 234.116 947.921 234.852 946.23 234.852C943.685 234.852 941.974 233.202 941.895 230.259H952.753V229.205C952.753 223.686 949.452 221.528 945.992 221.528C941.736 221.528 938.932 224.77 938.932 229.463C938.932 234.206 941.696 237.308 946.2 237.308ZM941.905 228.031C942.024 225.864 943.595 223.984 946.011 223.984C948.318 223.984 949.83 225.695 949.84 228.031H941.905ZM859.151 254.259C858.455 249.903 855.044 247.358 850.739 247.358C845.469 247.358 841.581 251.305 841.581 257.818C841.581 264.331 845.449 268.278 850.739 268.278C855.213 268.278 858.484 265.474 859.151 261.447L856.048 261.438C855.521 264.043 853.334 265.474 850.759 265.474C847.268 265.474 844.634 262.8 844.634 257.818C844.634 252.876 847.259 250.162 850.768 250.162C853.364 250.162 855.541 251.624 856.048 254.259H859.151ZM868.742 268.308C873.047 268.308 875.861 265.156 875.861 260.433C875.861 255.68 873.047 252.528 868.742 252.528C864.436 252.528 861.622 255.68 861.622 260.433C861.622 265.156 864.436 268.308 868.742 268.308ZM868.752 265.812C865.938 265.812 864.625 263.357 864.625 260.423C864.625 257.5 865.938 255.014 868.752 255.014C871.546 255.014 872.858 257.5 872.858 260.423C872.858 263.357 871.546 265.812 868.752 265.812ZM885.333 268.308C889.638 268.308 892.452 265.156 892.452 260.433C892.452 255.68 889.638 252.528 885.333 252.528C881.027 252.528 878.213 255.68 878.213 260.433C878.213 265.156 881.027 268.308 885.333 268.308ZM885.343 265.812C882.529 265.812 881.216 263.357 881.216 260.423C881.216 257.5 882.529 255.014 885.343 255.014C888.137 255.014 889.449 257.5 889.449 260.423C889.449 263.357 888.137 265.812 885.343 265.812ZM895.491 268H898.464V258.673C898.464 256.675 900.005 255.233 902.113 255.233C902.729 255.233 903.425 255.342 903.664 255.412V252.568C903.366 252.528 902.779 252.499 902.401 252.499C900.611 252.499 899.08 253.513 898.523 255.153H898.364V252.727H895.491V268ZM911.127 268.298C913.911 268.298 915.005 266.598 915.542 265.624H915.791V268H918.694V247.636H915.721V255.203H915.542C915.005 254.259 913.991 252.528 911.147 252.528C907.458 252.528 904.744 255.442 904.744 260.393C904.744 265.335 907.418 268.298 911.127 268.298ZM911.783 265.763C909.129 265.763 907.746 263.426 907.746 260.364C907.746 257.331 909.099 255.054 911.783 255.054C914.379 255.054 915.771 257.172 915.771 260.364C915.771 263.575 914.349 265.763 911.783 265.763ZM922.657 268H925.63V252.727H922.657V268ZM924.159 250.371C925.183 250.371 926.038 249.575 926.038 248.601C926.038 247.626 925.183 246.821 924.159 246.821C923.125 246.821 922.279 247.626 922.279 248.601C922.279 249.575 923.125 250.371 924.159 250.371ZM932.323 258.932C932.323 256.496 933.814 255.104 935.882 255.104C937.901 255.104 939.124 256.426 939.124 258.643V268H942.097V258.286C942.097 254.507 940.019 252.528 936.897 252.528C934.6 252.528 933.098 253.592 932.392 255.213H932.204V252.727H929.35V268H932.323V258.932ZM950.249 268.338C952.774 268.338 954.196 267.055 954.763 265.912H954.882V268H957.786V257.858C957.786 253.413 954.286 252.528 951.86 252.528C949.095 252.528 946.55 253.642 945.556 256.426L948.35 257.062C948.787 255.979 949.901 254.935 951.899 254.935C953.818 254.935 954.803 255.939 954.803 257.669V257.739C954.803 258.822 953.689 258.803 950.945 259.121C948.051 259.459 945.088 260.214 945.088 263.685C945.088 266.688 947.345 268.338 950.249 268.338ZM950.895 265.952C949.215 265.952 948.002 265.196 948.002 263.724C948.002 262.134 949.414 261.567 951.134 261.338C952.098 261.209 954.385 260.95 954.813 260.523V262.491C954.813 264.301 953.371 265.952 950.895 265.952ZM968.595 252.727H965.463V249.068H962.49V252.727H960.253V255.114H962.49V264.132C962.48 266.906 964.598 268.249 966.944 268.199C967.889 268.189 968.525 268.01 968.873 267.881L968.336 265.425C968.137 265.464 967.77 265.554 967.292 265.554C966.328 265.554 965.463 265.236 965.463 263.516V255.114H968.595V252.727ZM971.604 268H974.577V252.727H971.604V268ZM973.105 250.371C974.129 250.371 974.984 249.575 974.984 248.601C974.984 247.626 974.129 246.821 973.105 246.821C972.071 246.821 971.226 247.626 971.226 248.601C971.226 249.575 972.071 250.371 973.105 250.371ZM984.729 268.308C989.035 268.308 991.849 265.156 991.849 260.433C991.849 255.68 989.035 252.528 984.729 252.528C980.424 252.528 977.61 255.68 977.61 260.433C977.61 265.156 980.424 268.308 984.729 268.308ZM984.739 265.812C981.925 265.812 980.613 263.357 980.613 260.423C980.613 257.5 981.925 255.014 984.739 255.014C987.533 255.014 988.846 257.5 988.846 260.423C988.846 263.357 987.533 265.812 984.739 265.812ZM997.86 258.932C997.86 256.496 999.352 255.104 1001.42 255.104C1003.44 255.104 1004.66 256.426 1004.66 258.643V268H1007.63V258.286C1007.63 254.507 1005.56 252.528 1002.43 252.528C1000.14 252.528 998.636 253.592 997.93 255.213H997.741V252.727H994.887V268H997.86V258.932ZM1029.82 252.986H1032.78C1032.69 249.724 1029.81 247.358 1025.67 247.358C1021.58 247.358 1018.45 249.695 1018.45 253.205C1018.45 256.038 1020.48 257.699 1023.75 258.584L1026.16 259.24C1028.34 259.817 1030.02 260.533 1030.02 262.342C1030.02 264.331 1028.12 265.643 1025.5 265.643C1023.14 265.643 1021.17 264.589 1020.99 262.372H1017.91C1018.1 266.061 1020.96 268.338 1025.52 268.338C1030.3 268.338 1033.06 265.822 1033.06 262.372C1033.06 258.703 1029.79 257.281 1027.2 256.645L1025.21 256.128C1023.62 255.72 1021.5 254.974 1021.51 253.026C1021.51 251.295 1023.1 250.013 1025.6 250.013C1027.94 250.013 1029.6 251.107 1029.82 252.986ZM1042.79 268.308C1046.12 268.308 1048.48 266.668 1049.16 264.182L1046.34 263.675C1045.81 265.116 1044.51 265.852 1042.82 265.852C1040.28 265.852 1038.57 264.202 1038.49 261.259H1049.35V260.205C1049.35 254.686 1046.05 252.528 1042.58 252.528C1038.33 252.528 1035.53 255.77 1035.53 260.463C1035.53 265.206 1038.29 268.308 1042.79 268.308ZM1038.5 259.031C1038.62 256.864 1040.19 254.984 1042.6 254.984C1044.91 254.984 1046.42 256.695 1046.43 259.031H1038.5ZM1052.36 268H1055.34V258.673C1055.34 256.675 1056.88 255.233 1058.99 255.233C1059.6 255.233 1060.3 255.342 1060.54 255.412V252.568C1060.24 252.528 1059.65 252.499 1059.28 252.499C1057.49 252.499 1055.95 253.513 1055.4 255.153H1055.24V252.727H1052.36V268ZM1076.36 252.727H1073.17L1069.31 264.48H1069.15L1065.28 252.727H1062.09L1067.64 268H1070.82L1076.36 252.727ZM1084.91 268.308C1088.24 268.308 1090.6 266.668 1091.27 264.182L1088.46 263.675C1087.92 265.116 1086.63 265.852 1084.94 265.852C1082.4 265.852 1080.68 264.202 1080.61 261.259H1091.46V260.205C1091.46 254.686 1088.16 252.528 1084.7 252.528C1080.45 252.528 1077.64 255.77 1077.64 260.463C1077.64 265.206 1080.41 268.308 1084.91 268.308ZM1080.62 259.031C1080.73 256.864 1082.31 254.984 1084.72 254.984C1087.03 254.984 1088.54 256.695 1088.55 259.031H1080.62ZM1094.48 268H1097.46V258.673C1097.46 256.675 1099 255.233 1101.1 255.233C1101.72 255.233 1102.42 255.342 1102.66 255.412V252.568C1102.36 252.528 1101.77 252.499 1101.39 252.499C1099.6 252.499 1098.07 253.513 1097.51 255.153H1097.36V252.727H1094.48V268Z" fill="#FAF9F8"></path>
<circle cx="536" cy="463" r="45" fill="#343433"></circle>
<circle cx="165" cy="690" r="45" fill="#343433"></circle>
<circle cx="165" cy="243" r="45" fill="#343433"></circle>
<path d="M168.5 615L187 633.5" stroke="#C65835" stroke-width="3"></path>
<path d="M187 615L168.5 633.5" stroke="#C65835" stroke-width="3"></path>
<path d="M145 300L163.5 318.5" stroke="#C65835" stroke-width="3"></path>
<path d="M163.5 300L145 318.5" stroke="#C65835" stroke-width="3"></path>
<path d="M203.678 458H209.532C213.082 458 214.685 456.233 214.685 453.891C214.685 451.527 213.029 450.192 211.516 450.11V449.961C212.918 449.603 214.088 448.648 214.088 446.739C214.088 444.48 212.522 442.727 209.271 442.727H203.678V458ZM205.982 456.024V451.132H209.39C211.24 451.132 212.396 452.325 212.396 453.779C212.396 455.062 211.523 456.024 209.308 456.024H205.982ZM205.982 449.335V444.689H209.129C210.956 444.689 211.829 445.651 211.829 446.918C211.829 448.395 210.621 449.335 209.07 449.335H205.982ZM219.259 442.727H217.029V458H219.259V442.727ZM226.874 458.231C230.103 458.231 232.213 455.867 232.213 452.325C232.213 448.76 230.103 446.396 226.874 446.396C223.645 446.396 221.534 448.76 221.534 452.325C221.534 455.867 223.645 458.231 226.874 458.231ZM226.881 456.359C224.771 456.359 223.786 454.517 223.786 452.317C223.786 450.125 224.771 448.261 226.881 448.261C228.977 448.261 229.961 450.125 229.961 452.317C229.961 454.517 228.977 456.359 226.881 456.359ZM239.317 458.231C242.024 458.231 243.776 456.605 244.023 454.376H241.852C241.569 455.614 240.607 456.344 239.332 456.344C237.445 456.344 236.23 454.771 236.23 452.273C236.23 449.819 237.467 448.276 239.332 448.276C240.749 448.276 241.614 449.17 241.852 450.244H244.023C243.784 447.933 241.897 446.396 239.295 446.396C236.065 446.396 233.977 448.827 233.977 452.325C233.977 455.778 235.991 458.231 239.317 458.231ZM246.197 458H248.427V453.936L249.538 452.825L253.431 458H256.168L251.216 451.46L255.854 446.545H253.185L248.621 451.393H248.427V442.727H246.197V458ZM262.142 458.231C264.64 458.231 266.407 457.001 266.914 455.136L264.804 454.756C264.401 455.837 263.432 456.389 262.164 456.389C260.255 456.389 258.972 455.151 258.913 452.944H267.056V452.153C267.056 448.015 264.58 446.396 261.985 446.396C258.793 446.396 256.69 448.827 256.69 452.347C256.69 455.904 258.763 458.231 262.142 458.231ZM258.92 451.273C259.009 449.648 260.188 448.238 262 448.238C263.73 448.238 264.864 449.521 264.871 451.273H258.92ZM273.608 458.224C275.696 458.224 276.516 456.949 276.919 456.218H277.105V458H279.283V442.727H277.053V448.402H276.919C276.516 447.694 275.756 446.396 273.623 446.396C270.856 446.396 268.82 448.581 268.82 452.295C268.82 456.001 270.826 458.224 273.608 458.224ZM274.1 456.322C272.109 456.322 271.072 454.57 271.072 452.273C271.072 449.998 272.087 448.29 274.1 448.29C276.047 448.29 277.091 449.879 277.091 452.273C277.091 454.681 276.024 456.322 274.1 456.322ZM203.678 487H205.855V485.218H206.042C206.445 485.949 207.265 487.224 209.353 487.224C212.127 487.224 214.141 485.001 214.141 481.295C214.141 477.581 212.097 475.396 209.331 475.396C207.205 475.396 206.437 476.694 206.042 477.402H205.908V471.727H203.678V487ZM205.863 481.273C205.863 478.879 206.907 477.29 208.853 477.29C210.874 477.29 211.888 478.998 211.888 481.273C211.888 483.57 210.844 485.322 208.853 485.322C206.937 485.322 205.863 483.681 205.863 481.273ZM217.352 491.452C219.201 491.452 220.402 490.453 221.051 488.67L225.823 475.545H223.429L220.529 484.435H220.409L217.508 475.545H215.122L219.313 487.149L218.985 488.051C218.426 489.543 217.628 489.67 216.397 489.342L215.86 491.191C216.099 491.303 216.658 491.452 217.352 491.452ZM234.526 487L235.928 482.958H241.893L243.288 487H245.734L240.238 471.727H237.576L232.08 487H234.526ZM236.599 481.019L238.851 474.501H238.97L241.222 481.019H236.599ZM259.697 476.694C259.175 473.428 256.617 471.518 253.388 471.518C249.435 471.518 246.52 474.479 246.52 479.364C246.52 484.248 249.42 487.209 253.388 487.209C256.744 487.209 259.197 485.106 259.697 482.086L257.37 482.078C256.975 484.032 255.334 485.106 253.403 485.106C250.785 485.106 248.809 483.1 248.809 479.364C248.809 475.657 250.778 473.621 253.41 473.621C255.357 473.621 256.99 474.718 257.37 476.694H259.697ZM262.244 487H271.469V485.016H264.548V471.727H262.244V487Z" fill="#BD4F2C"></path>
<defs>
<filter id="filter0_d_49_395" x="803" y="380" width="478" height="475" filterUnits="userSpaceOnUse" color-interpolation-filters="sRGB">
<feFlood flood-opacity="0" result="BackgroundImageFix"></feFlood>
<feColorMatrix in="SourceAlpha" type="matrix" values="0 0 0 0 0 0 0 0 0 0 0 0 0 0 0 0 0 0 127 0" result="hardAlpha"></feColorMatrix>
<feOffset dy="4"></feOffset>
<feGaussianBlur stdDeviation="10"></feGaussianBlur>
<feColorMatrix type="matrix" values="0 0 0 0 0 0 0 0 0 0 0 0 0 0 0 0 0 0 0.05 0"></feColorMatrix>
<feBlend mode="normal" in2="BackgroundImageFix" result="effect1_dropShadow_49_395"></feBlend>
<feBlend mode="normal" in="SourceGraphic" in2="effect1_dropShadow_49_395" result="shape"></feBlend>
</filter>
</defs>
</svg>
